<?xml version="1.0" encoding="utf-8"?>
<!-- Generator: Adobe Illustrator 13.0.2, SVG Export Plug-In . SVG Version: 6.00 Build 14948)  -->
<!DOCTYPE svg PUBLIC "-//W3C//DTD SVG 1.0//EN" "http://www.w3.org/TR/2001/REC-SVG-20010904/DTD/svg10.dtd">
<svg version="1.0" id="Ebene_1" xmlns="http://www.w3.org/2000/svg" xmlns:xlink="http://www.w3.org/1999/xlink" x="0px" y="0px"
	 width="595.48px" height="595.48px" viewBox="0 0 595.48 595.48" enable-background="new 0 0 595.48 595.48" xml:space="preserve">
<polyline fill="#FFE01A" points="251.744,3.59 277.271,31.511 298.413,0 319.284,31.709 344.634,3.59 360.268,38.468 390.404,14.36 
	400.12,51.604 433.483,32.309 437.508,70.539 472.973,56.99 471.368,95.075 508.424,87.504 500.771,124.963 538.938,122.955 
	525.208,158.897 563.171,162.893 544.422,196.001 581.119,205.973 557.012,236.108 591.889,251.744 563.602,277.243 595.48,297.964 
	563.284,318.891 591.441,344.633 556.59,360.258 580.67,389.956 543.429,400.077 562.722,433.035 524.476,437.465 538.04,472.974 
	499.92,470.968 507.975,508.425 470.488,500.847 472.076,538.938 436.517,525.354 432.138,563.169 399.085,543.822 389.059,581.121 
	359.358,557.04 343.735,591.891 317.977,563.312 297.066,595.48 276.14,563.285 250.397,591.441 234.774,556.591 205.075,580.672 
	195.01,543.629 161.996,562.724 157.953,524.328 122.057,538.041 124.062,499.956 86.607,507.526 94.662,470.069 56.542,472.076 
	70.256,436.174 32.309,432.137 51.256,399.084 14.36,389.058 38.44,359.357 3.59,343.736 32.167,317.977 0,297.066 32.167,276.157 
	3.59,250.397 38.769,234.628 14.808,205.075 51.702,195.049 32.758,161.996 70.72,158 56.99,122.057 95.559,124.066 87.504,86.607 
	124.961,94.662 122.955,56.541 158.851,70.254 162.893,31.861 196.358,51.215 205.973,14.36 236.108,38.468 251.744,3.59 "/>
<path fill="#00529F" d="M297.516,33.254c146.179-0.107,264.554,118.271,264.711,264.262
	c-0.157,146.063-118.53,264.444-264.711,264.262C151.632,561.96,33.259,443.578,33.254,297.516
	C33.259,151.525,151.634,33.147,297.516,33.254"/>
<path fill="#FFE01A" d="M297.516,38.544C154.562,38.44,38.551,154.446,38.545,297.516c0.005,143.146,116.018,259.15,258.97,258.97
	c143.254,0.181,259.265-115.823,259.419-258.97C556.78,154.444,440.771,38.44,297.516,38.544"/>
<path fill="#00529F" d="M220.069,496.104c3.404,1.306,5.083,5.074,3.779,8.478c-1.261,3.422-5.029,5.102-8.478,3.777
	c-3.403-1.305-5.084-5.072-3.779-8.478C212.879,496.523,216.665,494.8,220.069,496.104"/>
<path fill="#00529F" d="M164.11,472.843c1.88,1.035,2.982,1.661,4.912-1.2l5.465-8.094c0.382-0.566,7.317,0.716,11.748,3.705
	c3.988,2.692,7.644,6.918,8.411,11.952c0.559,3.776,0.162,6.968-3.399,12.246c-4.569,6.77-14.346,9.961-22.887,4.196
	c-4.068-2.746-5.024-5.326-6.314-6.197c-0.321-0.217-1.788-0.913-2.79,0.053l-0.885-0.599l5.415-8.717l0.925,0.624
	c-0.869,3.636-1.465,9.037,4.174,12.844c3.827,2.584,11.461,4.043,18.339-6.149c4.922-7.293,3.806-14.672-2.439-18.886
	c-2.74-1.85-6.144-2.798-7.122-1.35l-4.405,6.526c-2.257,3.345-1.479,3.929,1.125,5.979l-0.49,0.725l-10.272-6.935L164.11,472.843"
	/>
<path fill="#00529F" d="M146.883,452.261l-4.994,13.619l13.206-5.961L146.883,452.261 M146.194,434.536l9.066,8.456l-0.63,0.674
	c-1.316-1.226-2.522-2.284-3.75-0.97c-0.53,0.568-1.162,2.173-1.413,2.87l-1.724,4.771l9.313,8.687l5.514-2.634
	c0.607-0.297,1.18-0.695,1.544-1.086c1.393-1.492-0.278-3.052-1.024-3.747l0.63-0.676l7.038,6.563l-0.63,0.678
	c-0.603-0.495-1.271-0.99-2.543-0.909c-1.645,0.126-5.167,1.692-7.301,2.627l-23.673,10.558l-0.71-0.662l9.979-28.445
	c1.283-3.657,1.15-4.512-0.314-6.076L146.194,434.536z"/>
<path fill="#00529F" d="M124.608,433.691c-2.438-3.274-6.801-9.115-12.423-5.029c-5.228,3.796-1.605,9.033-0.434,10.644
	c1.513,2.085,2.045,2.238,3.187,1.409L124.608,433.691 M125.1,406.008l4.598,6.329l-5.313,18.153l1.677,2.146l7.745-5.626
	c2.635-1.915,3.097-2.851,0.969-6.109l0.748-0.542l7.911,10.89l-0.748,0.542c-2.509-3.042-3.45-2.599-6.398-0.458l-17.024,12.367
	c-2.908,2.112-2.835,2.96-1.111,5.912l-0.746,0.542l-7.882-10.852c-2.542-3.498-6.428-10.587-0.375-14.983
	c5.269-3.827,9.925,0.599,11.774,2.319l4.065-15.325c0.432-1.636,0.454-3.094-0.638-4.763L125.1,406.008z"/>
<path fill="#00529F" d="M102.524,390.046l-9.54,10.928l14.462-0.836L102.524,390.046 M108.23,373.256l5.436,11.139l-0.83,0.405
	c-0.79-1.616-1.536-3.036-3.153-2.248c-0.699,0.34-1.862,1.612-2.346,2.173l-3.319,3.837l5.583,11.442l6.089-0.481
	c0.675-0.061,1.351-0.227,1.831-0.462c1.836-0.895,0.833-2.949,0.387-3.866l0.828-0.405l4.221,8.649l-0.831,0.406
	c-0.383-0.68-0.833-1.377-2.047-1.759c-1.582-0.473-5.432-0.272-7.757-0.162l-25.88,1.376l-0.426-0.872l19.503-22.981
	c2.505-2.954,2.689-3.8,1.881-5.785L108.23,373.256z"/>
<path fill="#00529F" d="M67.614,346.45c1.168,2.852,1.784,4.294,7.252,2.729l24.58-7.041l0.228,0.794l-19.722,27.896l0.025,0.095
	l18.227-5.219c4.815-1.379,5.561-2.653,4.725-6.105l0.888-0.254l3.144,10.98l-0.889,0.254c-1.249-3.483-2.232-4.265-7.279-2.819
	l-20.608,5.901c-1.79,2.584-1.808,3.398-1.273,5.269l-0.888,0.255l-2.287-7.991l17.353-24.335l-0.025-0.093l-15.611,4.468
	c-5.374,1.539-5.372,2.955-4.697,6.199l-0.888,0.256l-3.143-10.983L67.614,346.45"/>
<path fill="#00529F" d="M94.954,313.143l1.484,14.113l-0.918,0.095c-0.656-4.377-1.784-4.404-5.358-4.028l-24.167,2.538l0.275,2.611
	c0.56,5.315,1.614,6.522,6.993,7.033l0.124,1.159l-8.248,0.574l-2.864-27.26l8.186-1.152l0.122,1.16
	c-5.209,1.573-5.936,3.018-5.377,8.333l0.273,2.611l24.698-2.595c3.287-0.345,4.143-1.022,3.861-5.098L94.954,313.143"/>
<path fill="#00529F" d="M93.634,303.149c-0.098-4.133-0.924-4.716-4.376-4.716H67.674c-3.597,0-4.181,0.681-4.375,4.716h-0.924
	v-14.438h0.924c0.146,3.549,0.485,4.764,4.375,4.764h21.584c3.792,0,4.278-1.167,4.376-4.764h0.923v14.438H93.634"/>
<path fill="#00529F" d="M97.818,259.892l-3.19,26.054l-0.916-0.112c0.185-3.112-0.114-4.275-3.83-4.729l-21.419-2.623
	c-3.811-0.466-4.243,0.656-4.856,3.666l-0.917-0.112l3.136-25.619l6.916,0.701l-0.147,1.206c-4.383,0.198-5.307,1.357-5.962,6.712
	l-0.797,6.514c-0.125,1.012-0.196,1.591,1.445,1.792l10.71,1.313l0.909-7.431c0.525-4.293-0.572-4.917-3.934-5.868l0.136-1.11
	l11.192,1.371l-0.136,1.111c-3.93,0.104-4.693,0.746-5.231,4.745l-1.006,7.418l11.964,1.463c1.979,0.244,2.027,0.25,2.905-6.94
	c0.739-6.03-0.413-8.619-5.026-11.338l0.165-1.351L97.818,259.892"/>
<path fill="#00529F" d="M85.296,240.989c1.077-3.94,2.992-10.976-3.691-12.888c-6.215-1.78-8.109,4.302-8.657,6.216
	c-0.711,2.478-0.503,2.992,0.853,3.379L85.296,240.989 M107.414,224.315l-2.154,7.524l-17.578,7.001l-0.656,2.644l9.206,2.636
	c3.131,0.896,4.153,0.683,5.41-3.002l0.888,0.254l-3.706,12.945l-0.889-0.255c0.851-3.852-0.078-4.319-3.583-5.323l-20.234-5.794
	c-3.459-0.99-4.08-0.41-5.344,2.769l-0.888-0.255l3.693-12.897c1.19-4.16,4.38-11.59,11.578-9.529
	c6.262,1.793,5.643,8.189,5.427,10.708l14.58-6.242c1.556-0.667,2.719-1.547,3.361-3.438L107.414,224.315z"/>
<path fill="#00529F" d="M117.652,203.507l-6.222,12.754l-0.831-0.404c1.766-4.059,0.824-4.682-2.409-6.258l-21.84-10.656
	l-1.15,2.358c-2.344,4.805-2.09,6.389,2.203,9.672l-0.512,1.049l-7.298-3.886l12.021-24.634l7.554,3.36l-0.512,1.049
	c-5.252-1.427-6.637-0.587-8.979,4.216l-1.151,2.36l22.321,10.889c2.969,1.45,4.056,1.332,5.976-2.275L117.652,203.507"/>
<path fill="#00529F" d="M141.88,167.556l-8.539,11.341l-0.738-0.558c2.505-3.649,1.7-4.439-1.172-6.602l-19.415-14.624l-1.579,2.098
	c-3.217,4.271-3.271,5.875,0.319,9.917l-0.701,0.931l-6.426-5.204l16.494-21.9l6.776,4.738l-0.701,0.932
	c-4.886-2.402-6.404-1.842-9.62,2.431l-1.579,2.096l19.842,14.942c2.64,1.989,3.728,2.08,6.3-1.096L141.88,167.556"/>
<path fill="#00529F" d="M143.839,141.022c2.952-2.819,8.219-7.864,3.478-12.948c-4.409-4.727-9.166-0.492-10.623,0.867
	c-1.884,1.757-1.972,2.305-1.012,3.336L143.839,141.022 M171.384,138.132l-5.723,5.336l-18.672-3.057l-1.923,1.925l6.531,7.004
	c2.221,2.382,3.207,2.726,6.183,0.214l0.631,0.676l-9.848,9.184l-0.63-0.675c2.714-2.864,2.161-3.743-0.326-6.409l-14.355-15.393
	c-2.453-2.63-3.284-2.453-6.003-0.381l-0.631-0.675l9.811-9.151c3.165-2.95,9.727-7.673,14.831-2.198
	c4.443,4.762,0.617,9.925-0.863,11.972l15.709,2.164c1.677,0.232,3.128,0.077,4.653-1.213L171.384,138.132z"/>
<path fill="#00529F" d="M185.343,114.085l-11.868-8.351l2.345,14.302L185.343,114.085 M202.642,118.007l-10.514,6.569l-0.488-0.783
	c1.524-0.954,2.858-1.844,1.905-3.37c-0.412-0.659-1.799-1.684-2.406-2.109l-4.162-2.899l-10.802,6.75l1.118,6.007
	c0.13,0.666,0.365,1.32,0.649,1.773c1.081,1.731,3.021,0.521,3.886-0.019l0.489,0.781l-8.163,5.103l-0.49-0.783
	c0.634-0.454,1.283-0.974,1.536-2.221c0.305-1.623-0.298-5.431-0.649-7.735l-4.074-25.601l0.825-0.516l24.899,17.002
	c3.199,2.186,4.059,2.279,5.952,1.269L202.642,118.007z"/>
<path fill="#00529F" d="M212.813,109.185c0.619,1.533,1.288,1.63,3.452,0.757c2.885-1.165,13.975-5.643,8.678-18.761
	c-1.53-3.787-4.085-7-8.324-8.54c-2.947-1.065-5.962-1.262-11.643,1.031c-2.118,0.856-1.772,1.713-1.408,2.614L212.813,109.185
	 M205.323,115.302c3.353-1.563,3.604-2.501,2.328-5.658L199.57,89.63c-1.346-3.336-2.025-3.586-5.605-2.457l-0.345-0.854
	l12.172-4.916c10.818-4.368,19.969-2.349,24.046,7.748c2.422,5.995,2.428,16.269-11.366,21.838l-12.802,5.17L205.323,115.302z"/>
<path fill="#00529F" d="M240.126,102.33c3.985-1.094,4.351-2.036,3.518-5.385l-5.22-20.94c-0.87-3.488-1.67-3.891-5.632-3.104
	l-0.225-0.895l14.008-3.491l0.223,0.896c-3.407,0.998-4.504,1.622-3.564,5.396l5.218,20.94c0.918,3.677,2.167,3.868,5.681,3.092
	l0.223,0.896l-14.007,3.491L240.126,102.33"/>
<path fill="#00529F" d="M277.858,95.895l-14.053,1.974l-0.128-0.914c4.353-0.81,4.341-1.936,3.842-5.497l-3.382-24.066l-2.599,0.364
	c-5.293,0.745-6.466,1.842-6.787,7.236l-1.154,0.162l-0.862-8.223l27.145-3.813l1.44,8.141l-1.156,0.163
	c-1.755-5.153-3.223-5.83-8.518-5.085l-2.6,0.364l3.456,24.596c0.459,3.273,1.165,4.105,5.229,3.683L277.858,95.895"/>
<path fill="#00529F" d="M287.928,94.421c4.13-0.17,4.698-1.006,4.641-4.458l-0.367-21.586c-0.061-3.597-0.753-4.169-4.79-4.292
	l-0.017-0.924l14.439-0.254l0.017,0.926c-3.548,0.207-4.758,0.568-4.69,4.457l0.366,21.586c0.066,3.792,1.24,4.258,4.839,4.291
	l0.017,0.924l-14.439,0.255L287.928,94.421"/>
<path fill="#00529F" d="M334.664,81.884c1.346-10.999-3.531-15.563-8.452-16.166c-4.919-0.602-10.753,2.649-12.101,13.648
	c-1.298,10.615,3.097,15.511,8.45,16.167C327.919,96.189,333.366,92.497,334.664,81.884 M308.606,78.742
	c1.358-11.096,9.905-15.729,17.819-14.761c7.913,0.968,15.091,7.527,13.732,18.623C338.9,92.88,331.084,98.34,322.352,97.27
	C313.62,96.201,307.349,89.019,308.606,78.742z"/>
<path fill="#00529F" d="M384.589,80.289c-3.017-0.621-4.556-0.916-6.311,4.491l-7.896,24.312l-0.785-0.255l-12.111-31.932
	l-0.095-0.03l-5.853,18.026c-1.546,4.76-0.903,6.092,2.424,7.326l-0.283,0.879l-10.862-3.527l0.284-0.878
	c3.588,0.909,4.784,0.531,6.404-4.461l6.618-20.382c-1.145-2.926-1.81-3.397-3.657-3.998l0.285-0.876l7.902,2.565l10.484,27.979
	l0.092,0.03l5.012-15.438c1.728-5.315,0.554-6.104-2.516-7.356l0.286-0.879l10.861,3.529L384.589,80.289"/>
<path fill="#00529F" d="M400.951,123.217l-23.171-12.325l0.435-0.815c2.835,1.289,4.027,1.426,5.786-1.877l10.134-19.051
	c1.803-3.391,0.909-4.196-1.678-5.85l0.433-0.815l22.786,12.121l-3.138,6.205l-1.071-0.572c1.386-4.16,0.637-5.44-4.125-7.974
	l-5.796-3.083c-0.897-0.478-1.415-0.751-2.19,0.708l-5.067,9.526l6.608,3.513c3.819,2.033,4.795,1.231,6.887-1.565l0.988,0.526
	l-5.295,9.954l-0.988-0.525c1.313-3.706,0.988-4.65-2.549-6.587l-6.564-3.6l-5.658,10.641c-0.937,1.76-0.961,1.803,5.432,5.204
	c5.365,2.853,8.197,2.707,12.388-0.623l1.203,0.639L400.951,123.217"/>
<path fill="#00529F" d="M435.009,108.542c-2.789-1.785-3.97-2.223-6.227,0.883l-13.511,18.594c-1.139,1.573-0.462,2.126,2.802,4.498
	c5.897,4.284,8.528,5.955,14.511,2.432l0.981,0.715l-6.855,5.469l-21.15-15.363l0.542-0.749c2.63,1.672,3.791,1.975,5.991-1.052
	l12.678-17.456c2.257-3.105,1.484-4.027-0.85-6.024l0.543-0.746l11.087,8.052L435.009,108.542"/>
<path fill="#00529F" d="M463.527,132.854c-2.434-2.242-3.523-2.881-6.286-0.215l-16.545,15.964c-1.398,1.35-0.827,2.014,1.974,4.917
	c5.063,5.247,7.364,7.35,13.87,4.922l0.844,0.874l-7.708,4.194l-18.157-18.817l0.663-0.642c2.301,2.104,3.393,2.605,6.086,0.006
	l15.529-14.986c2.763-2.666,2.164-3.708,0.214-6.081l0.663-0.641l9.517,9.862L463.527,132.854"/>
<path fill="#00529F" d="M468.417,188.412l-15.421-21.229l0.746-0.544c1.987,2.403,2.996,3.049,6.024,0.851l17.455-12.681
	c3.104-2.255,2.657-3.371,1.054-5.991l0.747-0.542l15.164,20.876l-5.536,4.203l-0.714-0.983c3.071-3.131,2.956-4.61-0.214-8.974
	l-3.854-5.309c-0.601-0.824-0.941-1.295-2.278-0.325l-8.729,6.341l4.397,6.054c2.543,3.499,3.771,3.208,6.876,1.612l0.657,0.903
	l-9.12,6.626l-0.657-0.905c2.803-2.756,2.925-3.746,0.594-7.038l-4.32-6.11l-9.751,7.083c-1.61,1.17-1.65,1.198,2.605,7.056
	c3.57,4.916,6.178,6.024,11.405,4.869l0.798,1.101L468.417,188.412"/>
<path fill="#00529F" d="M507.394,215.702l-0.475-1.118c3.347-2.317,6.157-6.886,4.165-11.583c-0.947-2.236-3.303-3.931-6.077-2.754
	c-6.71,2.846-1.267,18.167-10.438,22.056c-3.804,1.613-9.387,0.393-12.101-6.004c-1.442-3.401-0.851-6.237-1.419-7.58
	c-0.397-0.938-1.349-1.063-2.064-0.761l-0.417-0.984l8.915-5.364l0.436,1.028c-1.741,1.743-6.591,6.49-4.029,12.53
	c1.52,3.579,4.828,4.287,7.243,3.262c2.549-1.082,3.766-2.441,4.826-10.649c0.624-5.121,1.379-8.819,5.809-10.697
	c5.1-2.163,9.33,0.845,11.037,4.872c1.14,2.684,0.644,5.745,1.118,6.864c0.529,1.252,1.654,1.039,2.186,0.919l0.397,0.94
	L507.394,215.702"/>
<path fill="#00529F" d="M507.536,235.303c0.145,0.917,0.349,1.87,0.613,2.857c0.466,1.737,2.151,8.028,9.291,6.116
	c6.714-1.798,4.972-8.679,4.418-10.746c-0.378-1.41-0.563-1.913-2.114-1.497L507.536,235.303 M520.739,222.403l3.321,12.399
	c1.736,6.48,0.808,12.97-5.156,14.569c-3.663,0.981-6.143-0.57-7.108-1.167c-2.465-1.504-4.115-4.282-5.436-9.213
	c-0.303-1.127-0.495-2.032-0.703-3.184l-8.547,2.288c-3.428,0.92-3.919,1.905-3.044,5.548l-0.893,0.239l-3.522-13.15l0.893-0.239
	c1.339,3.871,2.42,3.581,5.8,2.674l20.333-5.447c3.334-0.894,3.76-1.561,3.17-5.078L520.739,222.403z"/>
<path fill="#00529F" d="M500.339,284.435l-3.19-26.051l0.917-0.112c0.571,3.065,1.143,4.121,4.854,3.665l21.422-2.621
	c3.811-0.467,3.959-1.661,3.829-4.729l0.915-0.112l3.139,25.617l-6.884,0.99l-0.147-1.206c4.205-1.249,4.824-2.598,4.168-7.952
	l-0.796-6.515c-0.124-1.014-0.195-1.59-1.835-1.391l-10.711,1.31l0.909,7.431c0.526,4.293,1.744,4.635,5.233,4.746l0.135,1.111
	l-11.192,1.369l-0.136-1.109c3.789-1.051,4.375-1.859,3.934-5.867l-0.813-7.442l-11.966,1.464c-1.978,0.241-2.024,0.249-1.146,7.436
	c0.739,6.032,2.481,8.266,7.614,9.792l0.166,1.352L500.339,284.435"/>
<path fill="#00529F" d="M508.663,318.069l-8.511-1.463l0.949-27.402l0.729,0.026l28.855,22.258l0.372-10.738
	c0.241-6.948-2.946-7.641-6.181-8.386l0.044-1.264l8.275,1.26l-0.886,25.556l-0.729-0.025l-28.862-22.015l-0.433,12.488
	c-0.222,6.363,2.906,7.397,6.416,8.589L508.663,318.069"/>
<path fill="#00529F" d="M500.134,320.711c-0.407,4.112,0.342,4.794,3.767,5.212l21.422,2.622c3.57,0.437,4.231-0.166,4.914-4.148
	l0.918,0.113l-1.754,14.328l-0.917-0.113c0.286-3.539,0.097-4.786-3.764-5.259l-21.422-2.622c-3.761-0.46-4.386,0.637-4.919,4.195
	l-0.918-0.111l1.755-14.328L500.134,320.711"/>
<path fill="#00529F" d="M503.558,362.009l14.401-1.74l-11.312-9.055L503.558,362.009 M488.081,370.673l3.412-11.916l0.888,0.255
	c-0.495,1.728-0.889,3.283,0.838,3.778c0.747,0.216,2.465,0.049,3.199-0.044l5.036-0.632l3.506-12.244l-4.854-3.715
	c-0.542-0.408-1.155-0.735-1.669-0.883c-1.963-0.561-2.591,1.634-2.872,2.616l-0.888-0.254l2.649-9.254l0.888,0.254
	c-0.168,0.762-0.301,1.583,0.345,2.679c0.862,1.409,3.858,3.834,5.659,5.312l20.163,16.291l-0.267,0.935l-29.877,4.035
	c-3.839,0.519-4.54,1.026-5.27,3.042L488.081,370.673z"/>
<path fill="#00529F" d="M508.577,399.678c1.274-3.059,1.501-4.297-1.948-5.982l-20.66-10.079c-1.748-0.853-2.175-0.089-3.944,3.537
	c-3.197,6.552-4.386,9.433,0.122,14.715l-0.533,1.093l-6.577-5.807l11.466-23.498l0.828,0.403c-1.188,2.882-1.285,4.077,2.078,5.719
	l19.394,9.462c3.451,1.684,4.225,0.764,5.786-1.881l0.829,0.404l-6.009,12.317L508.577,399.678"/>
<path fill="#00529F" d="M473.145,402.19c-2.169,3.519-1.795,4.457,1.1,6.336l18.104,11.755c3.015,1.959,3.875,1.707,6.238-1.57
	l0.773,0.502l-7.862,12.109l-0.775-0.504c1.809-3.055,2.187-4.26-1.074-6.378l-18.103-11.755c-3.181-2.065-4.222-1.352-6.265,1.612
	l-0.774-0.502l7.863-12.11L473.145,402.19"/>
<path fill="#00529F" d="M449.302,433.039l9.122-10.873l0.707,0.595c-2.693,3.514-1.93,4.344,0.825,6.654l18.615,15.62l1.688-2.01
	c3.437-4.094,3.571-5.693,0.2-9.919l0.751-0.895l6.143,5.534l-17.62,21l-6.517-5.087l0.748-0.895
	c4.753,2.655,6.298,2.175,9.734-1.921l1.687-2.011l-19.025-15.964c-2.533-2.125-3.614-2.27-6.351,0.764L449.302,433.039"/>
<path fill="#00529F" d="M452.188,486.349c-1.006,0.844-2.58,0.707-3.424-0.299c-0.874-1.041-0.706-2.58,0.3-3.424
	c1.266-1.061,2.725-0.382,3.349,0.363C453.009,483.696,453.417,485.319,452.188,486.349 M459.599,480.132
	c-1.007,0.844-2.58,0.706-3.426-0.298c-0.873-1.043-0.705-2.582,0.301-3.424c1.268-1.063,2.725-0.383,3.35,0.362
	C460.416,477.479,460.827,479.102,459.599,480.132z M434.616,464.425l12.909,6.614l-4.31-13.832L434.616,464.425z M416.944,462.946
	l9.495-7.965l0.592,0.706c-1.377,1.154-2.575,2.225-1.419,3.602c0.5,0.597,2.016,1.418,2.675,1.751l4.526,2.295l9.756-8.186
	l-1.942-5.794c-0.221-0.639-0.546-1.254-0.892-1.663c-1.311-1.565-3.062-0.095-3.843,0.559l-0.594-0.707l7.373-6.184l0.594,0.706
	c-0.566,0.539-1.136,1.142-1.213,2.414c-0.075,1.648,1.052,5.333,1.719,7.566l7.596,24.778l-0.745,0.626l-27.017-13.371
	c-3.471-1.719-4.335-1.689-6.069-0.426L416.944,462.946z"/>
<path fill="#00529F" d="M396.133,475.534l12.162-7.306l0.475,0.792c-3.69,2.443-3.241,3.476-1.388,6.56l12.51,20.826l2.249-1.352
	c4.582-2.751,5.231-4.22,3.42-9.31l0.999-0.602l4.006,7.232l-23.494,14.111l-4.504-6.932l1-0.601
	c3.628,4.058,5.242,4.106,9.825,1.354l2.25-1.35l-12.785-21.285c-1.702-2.834-2.677-3.325-6.25-1.348L396.133,475.534"/>
<path fill="#00529F" d="M372.284,497.257c3.403-1.306,7.172,0.375,8.476,3.78c1.352,3.387-0.328,7.155-3.777,8.478
	c-3.404,1.304-7.173-0.374-8.479-3.779C367.217,502.377,368.879,498.563,372.284,497.257"/>
<path fill="#00529F" d="M119.814,297.516c-0.221-98.31,79.504-178.035,177.702-178.151c98.496,0.116,178.222,79.841,178.15,178.151
	c0.071,98.384-79.654,178.109-178.15,178.149C199.318,475.625,119.593,395.899,119.814,297.516"/>
<polyline fill="#FFE01A" points="297.964,135.071 303.35,152.123 320.402,152.123 306.49,162.444 311.426,179.047 297.964,168.726 
	284.502,179.047 289.438,162.444 275.527,152.123 292.579,152.123 297.964,135.071 "/>
<polyline fill="#FFE01A" points="367.519,154.367 372.904,171.868 389.955,171.868 376.045,182.189 380.98,198.344 367.519,188.471 
	354.058,198.344 358.993,182.189 345.081,171.868 362.134,171.868 367.519,154.367 "/>
<polyline fill="#FFE01A" points="419.574,205.973 424.509,223.024 442.011,223.024 428.099,233.794 433.034,249.949 
	419.574,239.628 406.111,249.949 411.047,233.794 397.137,223.024 414.188,223.024 419.574,205.973 "/>
<polyline fill="#FFE01A" points="438.421,275.079 443.806,292.13 460.858,292.13 446.946,302.899 451.882,319.056 438.421,309.183 
	424.958,319.056 430.343,302.899 415.984,292.13 433.483,292.13 438.421,275.079 "/>
<polyline fill="#FFE01A" points="419.125,345.531 424.061,363.031 441.562,363.031 427.202,373.353 432.587,389.507 
	419.125,379.634 405.662,389.507 410.598,373.353 396.688,363.031 413.74,363.031 419.125,345.531 "/>
<polyline fill="#FFE01A" points="367.519,397.136 372.904,414.188 389.955,414.188 376.045,424.957 380.98,441.113 367.519,430.791 
	354.058,441.113 358.993,424.957 345.081,414.188 362.134,414.188 367.519,397.136 "/>
<polyline fill="#FFE01A" points="297.516,416.433 302.9,433.484 319.953,433.484 306.041,443.805 310.979,460.408 297.516,450.088 
	284.053,460.408 288.989,443.805 275.079,433.484 292.131,433.484 297.516,416.433 "/>
<polyline fill="#FFE01A" points="227.063,397.585 232,414.638 249.5,414.638 235.14,425.406 240.525,441.561 227.063,431.689 
	213.601,441.561 218.537,425.406 204.178,414.638 221.678,414.638 227.063,397.585 "/>
<polyline fill="#FFE01A" points="175.458,345.531 180.843,363.031 197.895,363.031 183.984,373.353 188.92,389.507 175.458,379.634 
	161.996,389.507 166.931,373.353 153.021,363.031 170.073,363.031 175.458,345.531 "/>
<polyline fill="#FFE01A" points="156.61,275.079 161.996,292.13 179.047,292.13 165.136,302.899 170.073,319.056 156.61,309.183 
	143.148,319.056 148.085,302.899 134.173,292.13 151.675,292.13 156.61,275.079 "/>
<polyline fill="#FFE01A" points="175.458,205.075 180.843,222.126 197.895,222.126 183.984,232.448 188.92,249.052 175.458,238.73 
	161.996,249.052 166.931,232.448 153.021,222.126 170.073,222.126 175.458,205.075 "/>
<polyline fill="#FFE01A" points="227.512,153.918 232.448,170.97 249.949,170.97 235.589,181.741 240.974,197.895 227.512,188.022 
	214.049,197.895 218.986,181.741 205.075,170.97 222.126,170.97 227.512,153.918 "/>
</svg>
