<?xml version="1.0" encoding="utf-8"?>
<!-- Generator: Adobe Illustrator 24.1.0, SVG Export Plug-In . SVG Version: 6.00 Build 0)  -->
<svg version="1.1" xmlns="http://www.w3.org/2000/svg" xmlns:xlink="http://www.w3.org/1999/xlink" x="0px" y="0px"
	 viewBox="0 0 170.8 170.9" style="enable-background:new 0 0 170.8 170.9;" xml:space="preserve">
<style type="text/css">
	.st0{display:none;}
	.st1{display:inline;}
	.st2{fill:#E40B30;}
	.st3{fill:#FFDD18;}
	.st4{fill-rule:evenodd;clip-rule:evenodd;fill:#FFDF00;}
	.st5{fill-rule:evenodd;clip-rule:evenodd;fill:#164194;}
	.st6{fill-rule:evenodd;clip-rule:evenodd;fill:#FFDE14;stroke:#144391;stroke-width:1.5;}
	.st7{fill-rule:evenodd;clip-rule:evenodd;fill:#FFDE14;}
	.st8{display:inline;fill:#164194;}
	.st9{fill:#164194;}
	.st10{fill:#134C9C;}
	.st11{fill:#FFDE14;}
</style>
<g id="DOP" class="st0">
	<g class="st1">
		<polygon class="st2" points="91.4,9.1 98.8,1 103.3,11 111.8,4.1 114.7,14.7 124.2,9.3 125.4,20.2 135.6,16.3 135.1,27.2 
			145.8,25 143.6,35.7 154.5,35.2 150.7,45.4 161.5,46.6 156.1,56.1 166.7,59 159.8,67.6 169.8,72.1 161.7,79.4 170.8,85.4 
			161.7,91.5 169.8,98.8 159.8,103.3 166.7,111.8 156.1,114.7 161.5,124.2 150.6,125.4 154.5,135.7 143.6,135.2 145.8,145.9 
			135.1,143.7 135.6,154.6 125.4,150.7 124.2,161.6 114.7,156.2 111.8,166.7 103.3,159.9 98.8,169.9 91.4,161.8 85.4,170.9 
			79.4,161.8 72.1,169.9 67.5,159.9 59,166.7 56.1,156.2 46.6,161.6 45.4,150.7 35.2,154.6 35.7,143.6 25,145.9 27.2,135.1 
			16.3,135.7 20.2,125.4 9.3,124.2 14.7,114.7 4.2,111.8 11,103.3 1.1,98.8 9.2,91.4 0,85.4 9.2,79.4 1.1,72.1 11,67.5 4.2,59 
			14.7,56.1 9.3,46.6 20.2,45.4 16.3,35.2 27.3,35.7 25,25 35.7,27.2 35.2,16.3 45.5,20.1 46.6,9.3 56.2,14.7 59,4.1 67.6,11 
			72.1,1 79.4,9.1 85.4,-0.1 		"/>
		<path class="st3" d="M10.7,85.4c0-41.3,33.5-74.8,74.7-74.8c41.3,0,74.7,33.5,74.7,74.8c0,41.3-33.4,74.8-74.7,74.8
			C44.2,160.2,10.7,126.7,10.7,85.4"/>
		<path class="st3" d="M10.7,85.4c0-41.3,33.5-74.8,74.7-74.8c41.3,0,74.7,33.5,74.7,74.8c0,41.3-33.4,74.8-74.7,74.8
			C44.2,160.2,10.7,126.7,10.7,85.4"/>
		<path class="st2" d="M34.5,85.4c0-28.1,22.8-50.9,50.9-50.9c28.1,0,50.9,22.8,50.9,50.9c0,28.1-22.8,50.9-50.9,50.9
			C57.3,136.3,34.5,113.5,34.5,85.4"/>
		<path class="st2" d="M34.5,85.4c0-28.1,22.8-50.9,50.9-50.9c28.1,0,50.9,22.8,50.9,50.9c0,28.1-22.8,50.9-50.9,50.9
			C57.3,136.3,34.5,113.5,34.5,85.4"/>
		<polygon class="st3" points="123.6,61.7 122,57.2 120.5,61.7 115.6,61.7 119.6,64.5 118.1,69 122,66.2 125.9,69 124.5,64.5 
			128.4,61.7 		"/>
		<polygon class="st3" points="107.9,46.9 106.3,42.4 104.8,46.9 100,46.9 103.9,49.7 102.4,54.2 106.3,51.4 110.3,54.2 108.8,49.7 
			112.7,46.9 		"/>
		<polygon class="st3" points="86.7,41 85.1,36.5 83.6,41 78.8,41 82.7,43.8 81.2,48.4 85.1,45.6 89.1,48.4 87.6,43.9 91.5,41 		"/>
		<polygon class="st3" points="65.7,46.9 64.2,42.4 62.7,46.9 57.8,46.9 61.7,49.7 60.2,54.2 64.2,51.4 68.1,54.2 66.7,49.7 
			70.6,46.9 		"/>
		<polygon class="st3" points="50.1,61.7 48.5,57.2 47,61.7 42.1,61.7 46.1,64.5 44.6,69 48.5,66.2 52.5,69 51,64.5 54.9,61.7 		"/>
		<polygon class="st3" points="44.3,84.1 42.7,79.6 41.2,84.1 36.3,84.1 40.3,86.9 38.8,91.4 42.7,88.6 46.7,91.4 45.2,86.9 
			49.1,84.1 		"/>
		<polygon class="st3" points="51,104.5 49.4,100 47.9,104.5 43,104.5 47,107.3 45.4,111.8 49.4,109 53.3,111.8 51.9,107.3 
			55.8,104.5 		"/>
		<polygon class="st3" points="64.9,119.3 63.3,114.8 61.8,119.3 56.9,119.3 60.9,122.1 59.4,126.6 63.3,123.8 67.3,126.6 
			65.8,122.1 69.7,119.3 		"/>
		<polygon class="st3" points="86.7,126.9 85.1,122.4 83.6,126.9 78.8,126.9 82.7,129.7 81.2,134.2 85.1,131.5 89.1,134.2 
			87.6,129.7 91.5,126.9 		"/>
		<polygon class="st3" points="108.5,119.3 106.9,114.8 105.4,119.3 100.6,119.3 104.5,122.1 103,126.6 107,123.8 110.9,126.6 
			109.4,122.1 113.3,119.3 		"/>
		<polygon class="st3" points="122.5,104.5 120.9,100 119.4,104.5 114.5,104.5 118.5,107.3 116.9,111.8 120.9,109 124.8,111.8 
			123.4,107.3 127.3,104.5 		"/>
		<polygon class="st3" points="129.6,84 128,79.5 126.5,84 121.7,84 125.6,86.8 124.1,91.3 128.1,88.5 132,91.3 130.5,86.8 
			134.4,84 		"/>
		<path class="st3" d="M102.9,112.3c-8.8-9.3-27.2-17.5-49-20.8L53.8,91c-0.2-1.3-0.4-2.6-0.4-3.9c22.5,3.2,43,11.8,53,22.6
			C105.3,110.6,104.2,111.5,102.9,112.3"/>
		<path class="st3" d="M89.4,117.3c-4.1-7-16.6-13.8-32.5-17c-0.8-1.5-1.5-3.1-2-4.8c18.3,3.1,34.3,11.1,39,20.9
			c-1,0.3-1.9,0.5-2.9,0.7C90.5,117.1,90,117.2,89.4,117.3"/>
		<path class="st3" d="M59.5,104.4c8.6,2.3,15.8,6.4,18.3,12.2C70.4,114.8,64,110.4,59.5,104.4"/>
		<path class="st3" d="M86,86.6c11-3,22.1-4.2,31.4-3.3c0.1,1.1,0.1,2.2,0.1,3.3c-7.5-0.7-16.5-0.1-26,2c1.6,0.6,3.2,1.3,4.7,2
			c7.8-1.2,15.1-1,20.7,0.6c-0.2,1.1-0.5,2.2-0.8,3.2c-3.8-1.1-8.7-1.6-14.3-1.2c4.4,2.2,8.4,4.6,11.9,7.1c-0.7,1.3-1.4,2.5-2.3,3.7
			c-13.3-9.6-34.2-17.5-58.1-20.8c0.1-1.4,0.3-2.9,0.6-4.3c7.5,1,14.8,2.5,21.7,4.4c13.7-4.8,27.9-7.2,40.4-7.3
			c0.3,1.1,0.6,2.2,0.8,3.3c-10.8,0-23.1,1.8-35.7,5.6C82.9,85.6,84.4,86.1,86,86.6"/>
		<polygon class="st3" points="123.6,61.7 122,57.2 120.5,61.7 115.6,61.7 119.6,64.5 118.1,69 122,66.2 125.9,69 124.5,64.5 
			128.4,61.7 		"/>
		<polygon class="st3" points="107.9,46.9 106.3,42.4 104.8,46.9 100,46.9 103.9,49.7 102.4,54.2 106.3,51.4 110.3,54.2 108.8,49.7 
			112.7,46.9 		"/>
		<polygon class="st3" points="86.7,41 85.1,36.5 83.6,41 78.8,41 82.7,43.8 81.2,48.4 85.1,45.6 89.1,48.4 87.6,43.9 91.5,41 		"/>
		<polygon class="st3" points="65.7,46.9 64.2,42.4 62.7,46.9 57.8,46.9 61.7,49.7 60.2,54.2 64.2,51.4 68.1,54.2 66.7,49.7 
			70.6,46.9 		"/>
		<polygon class="st3" points="50.1,61.7 48.5,57.2 47,61.7 42.1,61.7 46.1,64.5 44.6,69 48.5,66.2 52.5,69 51,64.5 54.9,61.7 		"/>
		<polygon class="st3" points="44.3,84.1 42.7,79.6 41.2,84.1 36.3,84.1 40.3,86.9 38.8,91.4 42.7,88.6 46.7,91.4 45.2,86.9 
			49.1,84.1 		"/>
		<polygon class="st3" points="51,104.5 49.4,100 47.9,104.5 43,104.5 47,107.3 45.4,111.8 49.4,109 53.3,111.8 51.9,107.3 
			55.8,104.5 		"/>
		<polygon class="st3" points="64.9,119.3 63.3,114.8 61.8,119.3 56.9,119.3 60.9,122.1 59.4,126.6 63.3,123.8 67.3,126.6 
			65.8,122.1 69.7,119.3 		"/>
		<polygon class="st3" points="86.7,126.9 85.1,122.4 83.6,126.9 78.8,126.9 82.7,129.7 81.2,134.2 85.1,131.5 89.1,134.2 
			87.6,129.7 91.5,126.9 		"/>
		<polygon class="st3" points="108.5,119.3 106.9,114.8 105.4,119.3 100.6,119.3 104.5,122.1 103,126.6 107,123.8 110.9,126.6 
			109.4,122.1 113.3,119.3 		"/>
		<polygon class="st3" points="122.5,104.5 120.9,100 119.4,104.5 114.5,104.5 118.5,107.3 116.9,111.8 120.9,109 124.8,111.8 
			123.4,107.3 127.3,104.5 		"/>
		<polygon class="st3" points="129.6,84 128,79.5 126.5,84 121.7,84 125.6,86.8 124.1,91.3 128.1,88.5 132,91.3 130.5,86.8 
			134.4,84 		"/>
		<path class="st3" d="M102.9,112.3c-8.8-9.3-27.2-17.5-49-20.8L53.8,91c-0.2-1.3-0.4-2.6-0.4-3.9c22.5,3.2,43,11.8,53,22.6
			C105.3,110.6,104.2,111.5,102.9,112.3"/>
		<path class="st3" d="M89.4,117.3c-4.1-7-16.6-13.8-32.5-17c-0.8-1.5-1.5-3.1-2-4.8c18.3,3.1,34.3,11.1,39,20.9
			c-1,0.3-1.9,0.5-2.9,0.7C90.5,117.1,90,117.2,89.4,117.3"/>
		<path class="st3" d="M59.5,104.4c8.6,2.3,15.8,6.4,18.3,12.2C70.4,114.8,64,110.4,59.5,104.4"/>
		<path class="st3" d="M86,86.6c11-3,22.1-4.2,31.4-3.3c0.1,1.1,0.1,2.2,0.1,3.3c-7.5-0.7-16.5-0.1-26,2c1.6,0.6,3.2,1.3,4.7,2
			c7.8-1.2,15.1-1,20.7,0.6c-0.2,1.1-0.5,2.2-0.8,3.2c-3.8-1.1-8.7-1.6-14.3-1.2c4.4,2.2,8.4,4.6,11.9,7.1c-0.7,1.3-1.4,2.5-2.3,3.7
			c-13.3-9.6-34.2-17.5-58.1-20.8c0.1-1.4,0.3-2.9,0.6-4.3c7.5,1,14.8,2.5,21.7,4.4c13.7-4.8,27.9-7.2,40.4-7.3
			c0.3,1.1,0.6,2.2,0.8,3.3c-10.8,0-23.1,1.8-35.7,5.6C82.9,85.6,84.4,86.1,86,86.6"/>
		<path class="st2" d="M51.9,140.4c-0.4-0.3-0.7-0.6-0.8-1.1c-0.1-0.5,0-1,0.2-1.4c0.3-0.4,0.6-0.7,1.1-0.8c0.5-0.1,0.9,0,1.4,0.2
			c0.4,0.3,0.7,0.6,0.8,1.1c0.1,0.5,0,1-0.2,1.4c-0.3,0.4-0.6,0.7-1.1,0.8C52.8,140.7,52.3,140.6,51.9,140.4"/>
		<path class="st2" d="M49.9,131l-0.2,0.2l-0.3-0.3c-0.3-0.3-0.6-0.4-0.9-0.3c-0.2,0-0.5,0.3-0.8,0.7l-4.3,4.7
			c-0.4,0.5-0.6,0.8-0.6,1c0,0.3,0.1,0.6,0.4,0.8l0.3,0.2l-0.2,0.2l-2.9-2.7c-1.1-1-1.8-1.9-2.1-2.7c-0.3-0.8-0.4-1.6-0.2-2.5
			c0.2-0.9,0.6-1.7,1.3-2.5c0.9-1,2-1.6,3.3-1.7c1.4-0.1,2.8,0.5,4.2,1.8L49.9,131z M47.4,129.7c-0.4-0.5-0.7-0.9-1-1.2
			c-0.8-0.8-1.8-1.1-2.9-1c-1.1,0.1-2.1,0.6-3,1.6c-0.9,1-1.4,2-1.4,3.1c0,1.1,0.4,2,1.3,2.8c0.3,0.3,0.7,0.6,1.2,0.9L47.4,129.7z"
			/>
		<path class="st2" d="M32.9,127.1l3.1-2.4l-1.3-1.7c-0.3-0.4-0.6-0.7-0.9-0.7c-0.3-0.1-0.7,0.1-1.2,0.4l-0.2-0.2l2.7-2.1l0.2,0.2
			c-0.3,0.3-0.5,0.6-0.6,0.7c-0.1,0.2-0.1,0.4-0.1,0.6c0,0.2,0.2,0.5,0.4,0.8l1.3,1.7l2.6-2c0.3-0.3,0.5-0.4,0.6-0.5
			c0.1-0.1,0.1-0.2,0.1-0.3c0-0.1-0.1-0.3-0.3-0.5l-1-1.3c-0.3-0.4-0.6-0.7-0.8-0.9c-0.2-0.1-0.5-0.3-0.8-0.3c-0.4-0.1-1,0-1.6,0.1
			l-0.2-0.2l2.5-0.8l4.6,6l-0.2,0.2l-0.2-0.3c-0.1-0.2-0.3-0.3-0.5-0.4c-0.2-0.1-0.3-0.1-0.5,0c-0.2,0-0.4,0.2-0.8,0.5l-5.1,3.9
			c-0.5,0.4-0.8,0.7-0.8,0.9c-0.1,0.3,0.1,0.5,0.3,0.9l0.2,0.3l-0.2,0.2l-4.6-6l1.6-1.4l0.2,0.2c-0.3,0.4-0.6,0.7-0.6,0.9
			c-0.1,0.2-0.1,0.4,0,0.7c0.1,0.2,0.2,0.5,0.5,0.9L32.9,127.1z"/>
		<path class="st2" d="M28,121.4l-1.2-2.4l3.7-8.8l-5,2.6c-0.5,0.3-0.8,0.5-0.9,0.7c-0.1,0.3-0.1,0.5,0.1,0.9l0.2,0.3l-0.2,0.1
			l-1.6-3l0.2-0.1l0.2,0.3c0.2,0.4,0.4,0.6,0.7,0.6c0.2,0,0.5-0.1,1-0.3l7.4-3.9l0.1,0.2l-4,9.4l5.4-2.8c0.5-0.3,0.8-0.5,0.9-0.7
			c0.1-0.3,0.1-0.5-0.1-0.9l-0.2-0.3l0.2-0.1l1.6,3l-0.2,0.1l-0.2-0.3c-0.2-0.4-0.4-0.6-0.7-0.6c-0.2,0-0.5,0.1-1,0.3l-6.1,3.2
			c-0.2,0.4-0.3,0.7-0.3,0.9c0,0.2,0,0.4,0,0.7c0,0.1,0.1,0.3,0.2,0.6L28,121.4z"/>
		<path class="st2" d="M20.4,104.8c-0.4-1.2-0.2-2.4,0.4-3.6c0.7-1.2,1.7-2,3.1-2.4c1.4-0.4,2.8-0.3,4,0.3c1.2,0.6,2,1.6,2.4,2.9
			c0.4,1.3,0.3,2.5-0.4,3.7c-0.7,1.2-1.7,2-3.2,2.4c-1.5,0.5-2.9,0.3-4.1-0.4C21.5,107,20.8,106.1,20.4,104.8 M20.9,104.8
			c0.3,0.8,0.8,1.4,1.6,1.7c1,0.4,2.2,0.4,3.7-0.1c1.5-0.5,2.6-1.2,3.3-2.1c0.5-0.7,0.6-1.5,0.3-2.3c-0.3-0.9-0.8-1.5-1.7-1.9
			c-0.9-0.4-2-0.3-3.5,0.1c-1.6,0.5-2.7,1.2-3.3,2C20.8,103.1,20.7,103.9,20.9,104.8"/>
		<path class="st2" d="M27.9,90.7l-8,4.5l6.6-0.5c0.6-0.1,1-0.1,1.1-0.3c0.2-0.2,0.3-0.5,0.2-0.9l0-0.3l0.3,0l0.3,3.4l-0.3,0l0-0.4
			c0-0.4-0.2-0.7-0.5-0.9c-0.2-0.1-0.5-0.1-1.1-0.1l-6.4,0.5c-0.4,0-0.7,0.1-0.9,0.2c-0.1,0.1-0.2,0.2-0.3,0.4
			c-0.1,0.2-0.1,0.5-0.1,0.9l-0.3,0l-0.2-2.8l7.4-4.2l-8-2.9l-0.2-2.8l0.3,0l0,0.3c0,0.4,0.2,0.7,0.5,0.9c0.2,0.1,0.5,0.1,1.1,0.1
			l6.4-0.5c0.6,0,1-0.2,1.1-0.3c0.2-0.2,0.3-0.5,0.2-0.9l0-0.3l0.3,0l0.3,4.2l-0.3,0l0-0.3c0-0.4-0.2-0.7-0.5-0.8
			c-0.2-0.1-0.5-0.1-1.1-0.1l-6.6,0.5l8.6,3.1L27.9,90.7z"/>
		<path class="st2" d="M27.7,79l0.3,0l-0.3,4.2l-0.3,0l0-0.4c0-0.4-0.1-0.7-0.3-0.9c-0.1-0.1-0.5-0.2-1.1-0.2l-6.3-0.4
			c-0.5,0-0.8,0-1,0c-0.1,0-0.2,0.1-0.3,0.3c-0.1,0.2-0.2,0.4-0.2,0.7l0,0.3l-0.3,0l0.3-4.2l0.3,0l0,0.4c0,0.4,0.1,0.7,0.3,0.9
			c0.1,0.1,0.5,0.2,1.1,0.3l6.4,0.4c0.5,0,0.8,0,1,0c0.1,0,0.2-0.1,0.3-0.3c0.1-0.2,0.2-0.4,0.2-0.7L27.7,79z"/>
		<path class="st2" d="M18.1,76.8l0.5-2.6l8.4-4.4l-5.6-1.1c-0.6-0.1-1-0.1-1.2,0c-0.2,0.1-0.4,0.4-0.5,0.8l-0.1,0.3l-0.3-0.1
			l0.7-3.4l0.3,0.1l-0.1,0.3c-0.1,0.4,0,0.7,0.2,0.9c0.1,0.1,0.5,0.3,1,0.4l8.1,1.7l-0.1,0.3l-9.1,4.8l5.9,1.2c0.6,0.1,1,0.1,1.2,0
			c0.2-0.1,0.4-0.4,0.5-0.8l0.1-0.3l0.3,0.1l-0.7,3.4l-0.3-0.1l0.1-0.3c0.1-0.4,0-0.7-0.2-1c-0.1-0.1-0.5-0.3-1-0.4l-6.7-1.4
			c-0.4,0.2-0.6,0.4-0.8,0.5c-0.1,0.1-0.3,0.3-0.4,0.6c-0.1,0.1-0.1,0.3-0.2,0.6L18.1,76.8z"/>
		<path class="st2" d="M29.5,60.5L28,64l1.2,1.2c0.3,0.3,0.5,0.5,0.7,0.5c0.1,0.1,0.3,0,0.4,0c0.2-0.1,0.3-0.4,0.6-0.8l0.2,0.1
			L30,67.9l-0.3-0.1c0.1-0.4,0.1-0.7,0-0.8c-0.1-0.3-0.5-0.7-1-1.3l-6.2-6.3l0.1-0.2l8.9,0c0.7,0,1.2-0.1,1.5-0.2
			c0.3-0.1,0.5-0.4,0.7-0.7l0.2,0.1l-1.5,3.6l-0.3-0.1c0.1-0.4,0.2-0.6,0.1-0.8c0-0.2-0.1-0.3-0.3-0.3c-0.2-0.1-0.5-0.1-1-0.1
			L29.5,60.5z M28.9,60.4l-4.3,0l3,3.1L28.9,60.4z"/>
		<path class="st2" d="M30.5,45.1l2.9,1.6l-0.1,0.2c-1-0.3-1.8-0.3-2.5-0.1c-0.7,0.2-1.2,0.7-1.6,1.3c-0.4,0.5-0.5,1.1-0.5,1.8
			c0,0.6,0.2,1.3,0.7,1.9c0.4,0.6,1.1,1.3,2,1.9c0.8,0.5,1.5,0.8,2.2,0.9c0.7,0.1,1.4,0,2-0.3c0.6-0.3,1.1-0.7,1.5-1.4
			c0.3-0.5,0.5-1.1,0.6-1.6c0-0.6-0.1-1.3-0.5-2.2l0.2-0.1c0.5,0.9,0.7,1.7,0.7,2.5c0,0.8-0.3,1.5-0.8,2.3c-0.9,1.4-2.1,2.1-3.6,2.2
			c-1.1,0.1-2.2-0.2-3.2-0.9c-0.8-0.5-1.5-1.2-1.9-2c-0.5-0.8-0.7-1.7-0.6-2.6c0-0.9,0.3-1.7,0.8-2.5c0.4-0.6,0.9-1.1,1.6-1.5
			c0.2-0.1,0.3-0.2,0.4-0.3c0.1-0.1,0.1-0.2,0.1-0.4c0-0.2-0.1-0.4-0.3-0.5L30.5,45.1z"/>
		<path class="st2" d="M42.3,46.2l0.2,0.2l-2.7,3.2l-0.2-0.2l0.2-0.3c0.3-0.3,0.4-0.6,0.3-0.9c0-0.2-0.3-0.5-0.7-0.9l-4.8-4.1
			c-0.4-0.3-0.7-0.5-0.8-0.6c-0.1,0-0.3,0-0.4,0c-0.2,0.1-0.4,0.2-0.6,0.4l-0.2,0.3l-0.2-0.2L35,40l0.2,0.2L35,40.4
			c-0.3,0.3-0.4,0.6-0.3,0.9c0,0.2,0.3,0.5,0.7,0.9l4.8,4.1c0.4,0.3,0.6,0.5,0.8,0.6c0.1,0,0.3,0,0.4,0c0.2-0.1,0.4-0.2,0.6-0.4
			L42.3,46.2z"/>
		<path class="st2" d="M39.2,31.5l0.1,3.3L39.1,35l-1.1-2.4L39.2,31.5z M40,34.8c1-0.9,2.1-1.2,3.5-1.1c1.3,0.1,2.5,0.7,3.5,1.8
			c1,1.1,1.5,2.4,1.4,3.7c0,1.4-0.6,2.5-1.6,3.4c-1,0.9-2.2,1.3-3.5,1.2c-1.3-0.1-2.5-0.7-3.5-1.9c-1-1.2-1.5-2.5-1.4-3.9
			C38.5,36.7,39.1,35.6,40,34.8 M40.3,35.2c-0.7,0.6-1,1.3-0.9,2.1c0,1,0.6,2.2,1.6,3.3c1.1,1.2,2.2,1.9,3.2,2.1
			c0.8,0.1,1.6-0.1,2.2-0.7c0.7-0.6,1-1.4,1-2.3c0-0.9-0.6-2-1.6-3.2c-1.1-1.3-2.2-2-3.3-2.2C41.7,34.4,41,34.6,40.3,35.2"/>
		<path class="st2" d="M45.4,30.4l2.3-1.4l9,3.2l-2.9-4.9c-0.3-0.5-0.6-0.8-0.8-0.9c-0.3-0.1-0.6,0-0.9,0.2l-0.3,0.2l-0.1-0.2
			l2.9-1.8l0.1,0.2l-0.3,0.2c-0.4,0.2-0.5,0.5-0.6,0.8c0,0.2,0.1,0.5,0.4,1l4.3,7.1l-0.2,0.1l-9.7-3.4l3.1,5.2
			c0.3,0.5,0.6,0.8,0.7,0.9c0.3,0.1,0.6,0,0.9-0.2l0.3-0.2l0.1,0.2L51,38.6l-0.1-0.2l0.3-0.2c0.4-0.2,0.5-0.5,0.6-0.8
			c0-0.2-0.1-0.5-0.4-1l-3.5-5.9c-0.4-0.1-0.7-0.2-0.9-0.2c-0.2,0-0.4,0-0.7,0.1c-0.1,0-0.3,0.1-0.6,0.3L45.4,30.4z"/>
		<path class="st2" d="M63.6,31.6l-0.1-0.3l0.3-0.1c0.4-0.1,0.6-0.3,0.7-0.6c0.1-0.2,0-0.5-0.2-1.1l-1.9-6.1
			c-0.2-0.6-0.4-0.9-0.5-1.1c-0.2-0.1-0.5-0.2-0.9-0.1l-0.3,0.1l-0.1-0.3l3.8-1.2c1.4-0.4,2.5-0.6,3.4-0.5c0.8,0.1,1.6,0.5,2.3,1.1
			c0.7,0.6,1.2,1.4,1.5,2.4c0.4,1.3,0.3,2.5-0.2,3.7c-0.6,1.3-1.8,2.2-3.6,2.7L63.6,31.6z M66.1,30.1c0.6,0,1.1-0.1,1.5-0.3
			c1.1-0.3,1.9-1,2.3-1.9c0.5-1,0.5-2.1,0.1-3.4c-0.4-1.3-1.1-2.2-2-2.8c-0.9-0.5-2-0.6-3.1-0.3c-0.4,0.1-0.9,0.3-1.4,0.6L66.1,30.1
			z"/>
		<path class="st2" d="M75.6,19l0.5,3.9l2.2-0.3c0.6-0.1,0.9-0.2,1.1-0.4c0.2-0.3,0.3-0.7,0.3-1.2l0.3,0l0.4,3.4l-0.3,0
			c-0.1-0.5-0.2-0.8-0.3-0.9c-0.1-0.2-0.3-0.3-0.5-0.3c-0.2-0.1-0.5-0.1-0.9,0l-2.2,0.3l0.4,3.2c0.1,0.4,0.1,0.7,0.2,0.8
			c0.1,0.1,0.1,0.2,0.2,0.2c0.1,0,0.3,0,0.6,0l1.7-0.2c0.6-0.1,1-0.2,1.2-0.3c0.2-0.1,0.5-0.3,0.7-0.5c0.3-0.3,0.5-0.8,0.7-1.5
			l0.3,0l-0.5,2.6L74,28.6l0-0.3l0.3,0c0.2,0,0.4-0.1,0.6-0.2c0.1-0.1,0.2-0.2,0.3-0.4c0-0.2,0-0.5,0-1l-0.8-6.4
			c-0.1-0.6-0.2-1-0.3-1.1c-0.2-0.2-0.5-0.2-0.9-0.2l-0.3,0l0-0.3l7.5-0.9l0.4,2.1l-0.3,0c-0.2-0.5-0.3-0.8-0.5-1
			c-0.1-0.2-0.3-0.3-0.6-0.4c-0.2,0-0.6,0-1,0L75.6,19z"/>
		<path class="st2" d="M93,17.9c1.3,0.1,2.3,0.7,3.1,1.8c0.8,1.1,1.2,2.3,1,3.8c-0.2,1.5-0.8,2.7-1.8,3.5c-1,0.9-2.2,1.2-3.6,1.1
			c-1.4-0.2-2.4-0.8-3.2-1.8c-0.8-1.1-1.1-2.4-1-3.9c0.2-1.6,0.8-2.8,2-3.6C90.6,18.1,91.7,17.8,93,17.9 M92.8,18.5
			c-0.9-0.1-1.6,0.1-2.2,0.7c-0.7,0.7-1.2,1.9-1.4,3.4c-0.2,1.6,0,2.9,0.6,3.8c0.5,0.7,1.1,1.1,2,1.2c0.9,0.1,1.7-0.2,2.4-0.8
			c0.7-0.6,1.1-1.7,1.3-3.3c0.2-1.7,0-3-0.6-3.9C94.4,19,93.7,18.6,92.8,18.5"/>
		<path class="st2" d="M106.8,31.5l-2.5-0.8l-1.9-5.4c-0.2-0.1-0.4-0.1-0.6-0.2c-0.1,0-0.1,0-0.2-0.1c-0.1,0-0.1,0-0.2-0.1l-0.8,2.7
			c-0.2,0.6-0.2,1-0.1,1.2c0.1,0.3,0.3,0.4,0.7,0.5l0.4,0.1l-0.1,0.3l-4-1.2l0.1-0.3l0.4,0.1c0.4,0.1,0.7,0.1,1-0.1
			c0.1-0.1,0.3-0.4,0.5-1l1.8-6.1c0.2-0.6,0.2-1,0.1-1.2c-0.1-0.3-0.4-0.4-0.7-0.6l-0.3-0.1l0.1-0.3l3.4,1c1,0.3,1.7,0.6,2.2,0.9
			c0.4,0.3,0.8,0.7,1,1.2c0.2,0.5,0.2,1,0.1,1.6c-0.2,0.6-0.5,1-1,1.3c-0.5,0.3-1.2,0.4-2,0.4l1.1,3.3c0.3,0.8,0.5,1.3,0.8,1.6
			c0.3,0.3,0.6,0.6,1.1,0.8L106.8,31.5z M101.6,24.6c0.1,0,0.2,0.1,0.2,0.1c0.1,0,0.1,0,0.2,0.1c0.9,0.3,1.6,0.3,2.2,0
			c0.6-0.3,1-0.7,1.1-1.3c0.2-0.6,0.1-1.1-0.1-1.6c-0.3-0.5-0.7-0.8-1.3-1c-0.3-0.1-0.6-0.1-1.1-0.2L101.6,24.6z"/>
		<path class="st2" d="M110.9,33.2l-0.1,0.2l-3.9-1.7l0.1-0.3l0.3,0.1c0.4,0.2,0.7,0.2,1,0c0.2-0.1,0.4-0.4,0.6-1l2.6-5.8
			c0.2-0.5,0.3-0.8,0.3-0.9c0-0.1,0-0.3-0.1-0.4c-0.1-0.2-0.3-0.3-0.5-0.4l-0.3-0.1l0.1-0.2l3.9,1.7l-0.1,0.2l-0.3-0.1
			c-0.4-0.2-0.7-0.2-1,0c-0.2,0.1-0.4,0.4-0.6,1l-2.6,5.8c-0.2,0.5-0.3,0.8-0.3,0.9c0,0.1,0,0.3,0.2,0.4c0.1,0.2,0.3,0.3,0.5,0.4
			L110.9,33.2z"/>
		<path class="st2" d="M124.3,29.6l-1.4,2.8l-0.2-0.1c0.2-0.8,0.2-1.5,0.1-2c-0.2-0.8-0.7-1.4-1.5-1.9c-1.1-0.7-2.1-0.7-3.2-0.2
			c-0.9,0.4-1.7,1.1-2.3,2.1c-0.5,0.8-0.8,1.6-0.9,2.5c-0.1,0.9,0,1.6,0.3,2.2c0.3,0.6,0.7,1.1,1.3,1.4c0.3,0.2,0.6,0.3,1,0.4
			c0.3,0.1,0.7,0.2,1,0.2l1.5-2.4c0.3-0.4,0.4-0.7,0.4-0.9c0-0.2,0-0.3-0.1-0.5c-0.1-0.2-0.3-0.3-0.6-0.5l0.1-0.2l3.3,2l-0.1,0.2
			l-0.2-0.1c-0.3-0.2-0.6-0.2-0.9-0.1c-0.2,0.1-0.4,0.4-0.7,0.8l-1.6,2.6c-0.6,0-1.2-0.1-1.7-0.3c-0.5-0.2-1.1-0.4-1.7-0.8
			c-1.6-1-2.5-2.3-2.7-3.8c-0.2-1.2,0.1-2.3,0.7-3.3c0.5-0.7,1.1-1.3,1.8-1.8c0.9-0.5,1.9-0.8,2.9-0.8c0.8,0,1.7,0.3,2.5,0.8
			c0.3,0.2,0.6,0.4,0.8,0.6c0.2,0.2,0.5,0.5,0.9,1c0.2,0.2,0.3,0.4,0.4,0.4s0.2,0.1,0.3,0c0.1,0,0.2-0.2,0.4-0.4L124.3,29.6z"/>
		<path class="st2" d="M128.9,34.1l-2.6,2.9l1.6,1.4c0.4,0.4,0.8,0.6,1,0.6c0.3,0,0.7-0.2,1.1-0.6l0.2,0.2l-2.3,2.6l-0.2-0.2
			c0.3-0.4,0.4-0.7,0.5-0.8c0-0.2,0-0.4-0.1-0.6c-0.1-0.2-0.3-0.4-0.6-0.7l-1.6-1.4l-2.1,2.4c-0.3,0.3-0.4,0.5-0.5,0.6
			c0,0.1,0,0.2,0,0.3c0,0.1,0.2,0.2,0.4,0.4l1.3,1.1c0.4,0.4,0.7,0.6,1,0.7c0.2,0.1,0.5,0.2,0.8,0.1c0.4,0,1-0.2,1.6-0.4l0.2,0.2
			l-2.3,1.3l-5.7-5l0.2-0.2l0.3,0.2c0.2,0.2,0.4,0.3,0.6,0.3c0.2,0,0.3,0,0.5-0.1c0.1-0.1,0.4-0.3,0.7-0.7l4.2-4.8
			c0.4-0.5,0.6-0.8,0.6-1c0-0.3-0.2-0.5-0.5-0.8l-0.3-0.2l0.2-0.2l5.7,5l-1.3,1.7l-0.2-0.2c0.3-0.5,0.4-0.8,0.5-1
			c0-0.2,0-0.5-0.1-0.7c-0.1-0.2-0.3-0.4-0.7-0.8L128.9,34.1z"/>
		<path class="st2" d="M134.9,38.7l1.7,2.1l-2,9.3l4.4-3.6c0.5-0.4,0.7-0.7,0.8-0.9c0-0.3-0.1-0.6-0.3-0.9l-0.2-0.3l0.2-0.2l2.2,2.7
			l-0.2,0.2l-0.2-0.3c-0.3-0.3-0.5-0.5-0.8-0.5c-0.2,0-0.5,0.2-0.9,0.5l-6.5,5.2l-0.2-0.2l2.1-10l-4.7,3.8c-0.5,0.4-0.7,0.7-0.8,0.9
			c0,0.3,0.1,0.6,0.3,0.9l0.2,0.3l-0.2,0.2l-2.2-2.7l0.2-0.2l0.2,0.3c0.3,0.3,0.6,0.5,0.9,0.5c0.2,0,0.5-0.2,0.9-0.5l5.3-4.3
			c0.1-0.4,0.1-0.7,0.1-0.9c0-0.2-0.1-0.4-0.2-0.7c-0.1-0.1-0.2-0.3-0.3-0.5L134.9,38.7z"/>
		<path class="st2" d="M141.4,57.5l-2.6,1.2c-0.6,0.3-0.9,0.5-1,0.7c-0.1,0.3-0.1,0.6,0.1,0.9l0.2,0.3l-0.2,0.1l-1.8-3.8l0.2-0.1
			l0.2,0.3c0.2,0.4,0.4,0.6,0.8,0.6c0.2,0,0.5-0.1,1-0.3l5.8-2.7c0.6-0.3,0.9-0.5,1-0.7c0.1-0.3,0.1-0.6-0.1-0.9l-0.2-0.3l0.2-0.1
			l1.5,3.3c0.4,0.8,0.6,1.5,0.6,2c0,0.5,0,1.1-0.3,1.6c-0.2,0.5-0.6,0.9-1.2,1.1c-0.7,0.3-1.4,0.4-2.1,0.1c-0.7-0.3-1.2-0.8-1.6-1.7
			c-0.1-0.2-0.2-0.5-0.3-0.7C141.6,58.1,141.5,57.8,141.4,57.5 M141.8,57.3c0.1,0.2,0.1,0.5,0.2,0.7c0.1,0.2,0.1,0.4,0.2,0.5
			c0.2,0.5,0.6,0.8,1.1,0.9c0.5,0.2,1,0.1,1.6-0.2c0.4-0.2,0.7-0.4,1-0.7c0.3-0.3,0.4-0.7,0.4-1c0-0.4,0-0.7-0.2-1.1
			c-0.1-0.2-0.3-0.5-0.5-0.8L141.8,57.3z"/>
		<path class="st2" d="M142.4,73.9l-0.7-2.5l3.5-4.5c-0.1-0.2-0.1-0.4-0.2-0.6c0-0.1,0-0.1,0-0.2c0-0.1,0-0.1-0.1-0.2l-2.8,0.8
			c-0.6,0.2-1,0.3-1.1,0.5c-0.2,0.2-0.2,0.5-0.1,0.9l0.1,0.4l-0.3,0.1l-1.2-4.1l0.3-0.1l0.1,0.4c0.1,0.4,0.3,0.6,0.6,0.7
			c0.2,0.1,0.5,0,1.1-0.2l6.1-1.8c0.6-0.2,0.9-0.3,1.1-0.5c0.1-0.2,0.2-0.5,0.1-0.9l-0.1-0.4l0.3-0.1l1,3.4c0.3,1,0.4,1.8,0.4,2.3
			c0,0.5-0.2,1-0.5,1.4c-0.3,0.4-0.7,0.8-1.3,0.9c-0.6,0.2-1.1,0.1-1.7-0.1c-0.5-0.3-1-0.8-1.4-1.5l-2.1,2.7
			c-0.5,0.6-0.8,1.1-0.9,1.5c-0.1,0.4-0.1,0.8,0,1.4L142.4,73.9z M145.3,65.7c0,0.1,0,0.2,0.1,0.2c0,0.1,0,0.1,0,0.2
			c0.3,0.9,0.7,1.5,1.2,1.9c0.5,0.3,1.1,0.4,1.7,0.3c0.6-0.2,1-0.5,1.3-1c0.3-0.5,0.3-1,0.1-1.6c-0.1-0.3-0.2-0.6-0.4-1.1
			L145.3,65.7z"/>
		<path class="st2" d="M152.9,78.1c0.1,1.3-0.2,2.4-1.1,3.5c-0.9,1-2,1.6-3.5,1.8c-1.5,0.2-2.8-0.2-3.9-1c-1.1-0.8-1.7-1.9-1.8-3.3
			c-0.1-1.4,0.2-2.5,1.1-3.6c0.9-1,2.1-1.6,3.6-1.8c1.6-0.2,2.9,0.2,4,1.2C152.3,75.8,152.8,76.8,152.9,78.1 M152.4,78
			c-0.1-0.9-0.5-1.5-1.2-2c-0.9-0.6-2.1-0.8-3.7-0.6c-1.6,0.2-2.8,0.6-3.6,1.4c-0.6,0.6-0.9,1.3-0.8,2.2c0.1,0.9,0.5,1.6,1.3,2.2
			c0.8,0.5,1.9,0.7,3.5,0.5c1.7-0.2,2.9-0.6,3.6-1.4C152.3,79.7,152.5,79,152.4,78"/>
		<path class="st2" d="M152.7,93.6l-2.3,0l0-0.3c0.4,0,0.7-0.1,0.9-0.2c0.3-0.1,0.5-0.3,0.7-0.6c0.1-0.2,0.2-0.6,0.3-1l0.1-1.4
			l-7.5-0.4c-0.6,0-1,0-1.1,0.1c-0.2,0.2-0.3,0.4-0.3,0.8l0,0.3l-0.3,0l0.2-4.2l0.3,0l0,0.3c0,0.4,0.1,0.7,0.3,0.9
			c0.1,0.1,0.5,0.2,1,0.2l7.5,0.4l0.1-1.2c0-0.5,0-0.8,0-1c-0.1-0.3-0.2-0.5-0.5-0.7c-0.2-0.2-0.6-0.3-1-0.4l0-0.3l2.3,0.3
			L152.7,93.6z"/>
		<path class="st2" d="M151.3,98.6l-3.8-0.8l-0.5,2.1c-0.1,0.6-0.1,0.9,0,1.2c0.2,0.3,0.5,0.5,1.1,0.7l-0.1,0.3l-3.4-0.7l0.1-0.3
			c0.5,0,0.8,0,0.9,0c0.2,0,0.3-0.2,0.5-0.3c0.1-0.2,0.3-0.5,0.3-0.9l0.5-2.1l-3.2-0.7c-0.4-0.1-0.7-0.1-0.8-0.1
			c-0.1,0-0.2,0.1-0.3,0.1c-0.1,0.1-0.1,0.3-0.2,0.5l-0.4,1.6c-0.1,0.5-0.2,1-0.1,1.2c0,0.3,0.1,0.5,0.3,0.8
			c0.2,0.4,0.6,0.8,1.1,1.2l-0.1,0.3l-2.2-1.4l1.6-7.4l0.3,0.1l-0.1,0.3c0,0.2,0,0.5,0,0.7c0,0.2,0.1,0.3,0.3,0.4
			c0.1,0.1,0.4,0.2,0.9,0.3l6.3,1.4c0.6,0.1,1,0.2,1.2,0.1c0.2-0.1,0.4-0.4,0.5-0.8l0.1-0.3l0.3,0.1l-1.6,7.4l-2.1-0.3l0.1-0.3
			c0.5,0,0.9,0,1.1-0.1c0.2-0.1,0.4-0.2,0.5-0.4c0.1-0.2,0.2-0.5,0.3-1L151.3,98.6z"/>
		<path class="st2" d="M146.9,114.8l-3-0.9l0.1-0.2c0.8,0.1,1.5,0,2-0.2c0.7-0.3,1.3-0.9,1.6-1.8c0.5-1.2,0.4-2.2-0.3-3.2
			c-0.6-0.8-1.4-1.5-2.5-1.9c-0.9-0.4-1.7-0.5-2.6-0.5c-0.9,0-1.6,0.3-2.1,0.7c-0.6,0.4-1,0.9-1.2,1.5c-0.1,0.3-0.2,0.7-0.3,1
			c0,0.3,0,0.7,0,1.1l2.6,1.1c0.5,0.2,0.8,0.3,0.9,0.3c0.2,0,0.3-0.1,0.5-0.2c0.1-0.1,0.3-0.4,0.4-0.7l0.3,0.1l-1.5,3.5l-0.3-0.1
			l0.1-0.2c0.1-0.3,0.1-0.6-0.1-0.9c-0.1-0.1-0.4-0.3-0.9-0.5l-2.8-1.1c-0.1-0.6-0.1-1.2,0-1.8c0.1-0.5,0.2-1.1,0.5-1.7
			c0.7-1.8,1.8-2.9,3.3-3.3c1.1-0.3,2.2-0.3,3.4,0.2c0.8,0.3,1.5,0.8,2.1,1.5c0.7,0.8,1.1,1.7,1.2,2.7c0.1,0.8,0,1.7-0.4,2.6
			c-0.1,0.3-0.3,0.6-0.4,0.9c-0.2,0.3-0.4,0.6-0.8,1c-0.2,0.2-0.3,0.4-0.3,0.4c0,0.1,0,0.2,0,0.3c0.1,0.1,0.2,0.2,0.4,0.3
			L146.9,114.8z"/>
		<path class="st2" d="M134.6,116.5l-0.2-0.1l2.1-3.6l0.2,0.1l-0.2,0.3c-0.2,0.3-0.3,0.7-0.1,1c0.1,0.2,0.4,0.4,0.9,0.7l5.5,3.2
			c0.4,0.3,0.7,0.4,0.9,0.4c0.1,0,0.3,0,0.4-0.1c0.2-0.1,0.4-0.3,0.5-0.5l0.2-0.3l0.2,0.1l-2.1,3.7l-0.2-0.1l0.2-0.3
			c0.2-0.4,0.3-0.7,0.1-0.9c-0.1-0.2-0.4-0.4-0.9-0.7l-5.5-3.2c-0.4-0.3-0.7-0.4-0.9-0.4c-0.1,0-0.3,0-0.4,0.1
			c-0.2,0.1-0.4,0.3-0.5,0.5L134.6,116.5z"/>
		<path class="st2" d="M134.2,117l0.2,0.2l-0.2,0.3c-0.3,0.3-0.3,0.6-0.2,0.9c0.1,0.2,0.3,0.4,0.7,0.8l5,3.9c0.5,0.4,0.8,0.6,1,0.6
			c0.3,0,0.5-0.2,0.8-0.5l0.2-0.3l0.2,0.2l-2.5,3.1c-0.9,1.2-1.7,1.9-2.5,2.3c-0.7,0.4-1.6,0.5-2.5,0.4c-0.9-0.1-1.8-0.5-2.6-1.1
			c-1.1-0.8-1.7-1.9-1.9-3.1c-0.2-1.4,0.3-2.8,1.4-4.3L134.2,117z M133,119.6c-0.5,0.4-0.9,0.8-1.1,1.1c-0.7,0.9-1,1.9-0.8,2.9
			c0.2,1.1,0.8,2,1.8,2.9c1.1,0.8,2.1,1.2,3.2,1.1c1.1-0.1,2-0.6,2.7-1.5c0.3-0.3,0.5-0.8,0.8-1.3L133,119.6z"/>
		<path class="st2" d="M124.7,132.2l2.9-2.5l-0.5-1.6c-0.1-0.4-0.3-0.7-0.4-0.8c-0.1-0.1-0.2-0.2-0.4-0.2c-0.2,0-0.5,0.2-0.8,0.4
			l-0.2-0.2l2.3-2l0.2,0.2c-0.3,0.3-0.4,0.6-0.4,0.7c0,0.3,0.1,0.9,0.3,1.6l2.7,8.4l-0.2,0.2l-8-3.9c-0.6-0.3-1.1-0.5-1.4-0.5
			c-0.3,0-0.6,0.1-0.9,0.4l-0.2-0.2l2.9-2.6l0.2,0.2c-0.3,0.3-0.4,0.5-0.5,0.7c0,0.2,0,0.3,0.1,0.4c0.1,0.2,0.4,0.3,0.9,0.6
			L124.7,132.2z M125.2,132.5l3.9,1.9l-1.3-4.1L125.2,132.5z"/>
		<path class="st2" d="M118.2,140.9c-0.4,0.3-0.9,0.3-1.4,0.2c-0.5-0.1-0.9-0.4-1.1-0.8c-0.3-0.4-0.3-0.9-0.2-1.4
			c0.1-0.5,0.4-0.9,0.8-1.1c0.4-0.3,0.9-0.3,1.4-0.2c0.5,0.1,0.9,0.4,1.1,0.8c0.3,0.4,0.3,0.9,0.2,1.4
			C119,140.3,118.7,140.7,118.2,140.9"/>
	</g>
</g>
<g id="ETG" class="st0">
	<g class="st1">
		<polygon class="st4" points="91.4,9.2 98.8,1.1 103.3,11 111.8,4.2 114.7,14.8 124.2,9.3 125.4,20.2 135.6,16.3 135.1,27.3 
			145.8,25 143.6,35.8 154.5,35.2 150.7,45.5 161.5,46.7 156.1,56.2 166.7,59 159.8,67.6 169.8,72.1 161.7,79.4 170.8,85.4 
			161.7,91.4 169.8,98.8 159.8,103.3 166.7,111.8 156.1,114.7 161.5,124.2 150.6,125.4 154.5,135.6 143.6,135.1 145.8,145.8 
			135.1,143.6 135.6,154.5 125.4,150.7 124.2,161.5 114.7,156.1 111.8,166.7 103.3,159.8 98.8,169.8 91.4,161.7 85.4,170.9 
			79.4,161.7 72.1,169.8 67.5,159.8 59,166.7 56.1,156.1 46.6,161.5 45.4,150.7 35.2,154.5 35.7,143.6 25,145.8 27.2,135.1 
			16.3,135.6 20.2,125.4 9.3,124.2 14.7,114.7 4.2,111.8 11,103.3 1.1,98.8 9.2,91.4 0,85.4 9.2,79.4 1.1,72.1 11,67.6 4.2,59 
			14.7,56.1 9.3,46.6 20.2,45.4 16.3,35.2 27.3,35.7 25,25 35.7,27.2 35.2,16.3 45.5,20.2 46.6,9.3 56.2,14.7 59,4.2 67.6,11 
			72.1,1.1 79.4,9.1 85.4,0 91.4,9.2 		"/>
		<path class="st5" d="M10.9,85.4c0-41.1,33.3-74.5,74.5-74.5c41.1,0,74.5,33.4,74.5,74.5c0,41.1-33.3,74.5-74.5,74.5
			C44.3,159.9,10.9,126.6,10.9,85.4L10.9,85.4z"/>
		<path class="st6" d="M10.9,85.4c0-41.1,33.4-74.5,74.5-74.5c41.1,0,74.5,33.4,74.5,74.5c0,41.1-33.4,74.5-74.5,74.5
			C44.3,159.9,10.9,126.6,10.9,85.4L10.9,85.4z"/>
		<path class="st5" d="M34.5,85.4c0-28.1,22.8-50.9,50.9-50.9c28.1,0,50.9,22.8,50.9,50.9c0,28.1-22.8,50.9-50.9,50.9
			C57.3,136.3,34.5,113.5,34.5,85.4L34.5,85.4z"/>
		<polygon class="st7" points="123.6,61.7 122,57.2 120.5,61.7 115.6,61.7 119.6,64.5 118.1,69 122,66.2 125.9,69 124.5,64.5 
			128.4,61.7 123.6,61.7 		"/>
		<polygon class="st7" points="107.9,46.9 106.3,42.4 104.8,46.9 100,46.9 103.9,49.7 102.4,54.2 106.3,51.4 110.3,54.2 108.8,49.7 
			112.7,46.9 107.9,46.9 		"/>
		<polygon class="st7" points="86.7,41.1 85.1,36.6 83.6,41.1 78.8,41.1 82.7,43.9 81.2,48.4 85.1,45.6 89.1,48.4 87.6,43.9 
			91.5,41.1 86.7,41.1 		"/>
		<polygon class="st7" points="65.7,46.9 64.2,42.4 62.7,46.9 57.8,46.9 61.8,49.7 60.2,54.2 64.2,51.4 68.1,54.2 66.7,49.7 
			70.6,46.9 65.7,46.9 		"/>
		<polygon class="st7" points="50.1,61.7 48.5,57.2 47,61.7 42.1,61.7 46.1,64.5 44.6,69 48.5,66.2 52.5,69 51,64.5 54.9,61.7 
			50.1,61.7 		"/>
		<polygon class="st7" points="44.3,84.1 42.7,79.6 41.2,84.1 36.3,84.1 40.3,86.9 38.8,91.4 42.7,88.6 46.7,91.4 45.2,86.9 
			49.1,84.1 44.3,84.1 		"/>
		<polygon class="st7" points="51,104.5 49.4,100 47.9,104.5 43,104.5 47,107.3 45.4,111.8 49.4,109 53.3,111.8 51.9,107.3 
			55.8,104.5 51,104.5 		"/>
		<polygon class="st7" points="64.9,119.3 63.3,114.8 61.8,119.3 56.9,119.3 60.9,122.1 59.4,126.6 63.3,123.8 67.3,126.6 
			65.8,122.1 69.7,119.3 64.9,119.3 		"/>
		<polygon class="st7" points="86.7,126.9 85.1,122.4 83.6,126.9 78.8,126.9 82.7,129.7 81.2,134.2 85.1,131.4 89.1,134.2 
			87.6,129.7 91.5,126.9 86.7,126.9 		"/>
		<polygon class="st7" points="108.5,119.3 106.9,114.8 105.4,119.3 100.6,119.3 104.5,122.1 103,126.6 107,123.8 110.9,126.6 
			109.4,122.1 113.3,119.3 108.5,119.3 		"/>
		<polygon class="st7" points="122.4,104.5 120.9,100 119.4,104.5 114.5,104.5 118.5,107.3 116.9,111.8 120.9,109 124.8,111.8 
			123.4,107.3 127.3,104.5 122.4,104.5 		"/>
		<polygon class="st7" points="129.6,84 128,79.5 126.5,84 121.7,84 125.6,86.8 124.1,91.3 128.1,88.5 132,91.3 130.5,86.8 
			134.4,84 129.6,84 		"/>
		<g class="st0">
			<path class="st8" d="M44.4,136.5c-0.4-0.4-0.7-0.8-0.8-1.4c-0.1-0.6,0.1-1.1,0.4-1.5c0.4-0.4,0.8-0.7,1.4-0.8
				c0.6-0.1,1.1,0.1,1.5,0.4c0.4,0.4,0.7,0.8,0.8,1.4c0.1,0.6-0.1,1.1-0.4,1.5c-0.4,0.4-0.8,0.7-1.4,0.8
				C45.4,137,44.9,136.9,44.4,136.5z"/>
			<path class="st8" d="M42.3,124.3l0.2-0.2l2.8,2.9l-0.2,0.2l-0.2-0.2c-0.3-0.3-0.5-0.4-0.8-0.4c-0.2,0-0.5,0.2-0.9,0.6l-4.3,4.2
				c-0.3,0.3-0.5,0.6-0.6,0.7c-0.1,0.1-0.1,0.2,0,0.4c0.1,0.2,0.2,0.4,0.3,0.6l0.2,0.2l-0.2,0.2l-2.8-2.9l0.2-0.2l0.2,0.2
				c0.3,0.3,0.5,0.4,0.8,0.4c0.2,0,0.5-0.2,0.9-0.6l4.3-4.2c0.3-0.3,0.5-0.6,0.6-0.7c0.1-0.1,0.1-0.2,0-0.4
				c-0.1-0.2-0.2-0.4-0.3-0.6L42.3,124.3z"/>
			<path class="st8" d="M33.5,128.2l-1.4-2.1l2.4-8.6l-4.4,3.1c-0.5,0.3-0.7,0.6-0.8,0.8c-0.1,0.2,0,0.5,0.2,0.8l0.2,0.3l-0.2,0.1
				l-1.9-2.6l0.2-0.1l0.2,0.3c0.2,0.3,0.5,0.5,0.8,0.5c0.2,0,0.5-0.2,0.9-0.4l6.4-4.5l0.1,0.2l-2.6,9.3l4.7-3.3
				c0.5-0.3,0.7-0.6,0.8-0.8c0.1-0.3,0-0.5-0.2-0.8l-0.2-0.3l0.2-0.1l1.9,2.6l-0.2,0.1l-0.2-0.3c-0.2-0.3-0.5-0.5-0.8-0.5
				c-0.2,0-0.5,0.2-0.9,0.4l-5.3,3.7c-0.1,0.4-0.2,0.7-0.2,0.9c0,0.2,0,0.4,0.1,0.7c0,0.1,0.1,0.3,0.3,0.5L33.5,128.2z"/>
			<path class="st8" d="M34.8,113.8l-0.2,0.1l-0.1-0.3c-0.2-0.4-0.4-0.6-0.7-0.6c-0.2,0-0.5,0.1-1,0.3l-5.5,2.5
				c-0.5,0.2-0.8,0.4-0.9,0.6c-0.1,0.2-0.1,0.5,0.1,0.8l0.1,0.3l-0.2,0.1l-1.6-3.4c-0.6-1.3-0.9-2.3-0.9-3.1c0-0.8,0.2-1.5,0.7-2.2
				c0.5-0.7,1.2-1.3,2-1.7c1.2-0.5,2.3-0.6,3.4-0.3c1.2,0.4,2.2,1.4,3,3.1L34.8,113.8z M33.1,111.7c-0.1-0.6-0.3-1-0.4-1.4
				c-0.4-1-1.1-1.6-2.1-1.9c-1-0.3-2-0.2-3.2,0.3c-1.2,0.5-1.9,1.3-2.3,2.2c-0.4,0.9-0.3,1.9,0.1,2.9c0.2,0.4,0.4,0.8,0.8,1.2
				L33.1,111.7z"/>
			<path class="st8" d="M29.3,100.2l0.2-0.1l1.1,3.8l-0.2,0.1l-0.1-0.3c-0.1-0.4-0.3-0.6-0.6-0.7c-0.2-0.1-0.5,0-1.1,0.1l-5.7,1.7
				c-0.5,0.1-0.7,0.2-0.9,0.3c-0.1,0.1-0.2,0.2-0.2,0.4c0,0.2,0,0.4,0,0.6l0.1,0.3l-0.2,0.1l-1.1-3.8l0.2-0.1L21,103
				c0.1,0.4,0.3,0.6,0.6,0.7c0.2,0.1,0.5,0,1.1-0.1l5.7-1.7c0.5-0.1,0.7-0.3,0.9-0.4c0.1-0.1,0.2-0.2,0.2-0.4c0-0.2,0-0.4,0-0.6
				L29.3,100.2z"/>
			<path class="st8" d="M18.5,92.5l3.1-0.7l0,0.2c-0.9,0.4-1.5,0.9-1.8,1.5c-0.3,0.6-0.4,1.2-0.3,2c0.1,0.6,0.3,1.1,0.7,1.6
				c0.4,0.4,0.9,0.7,1.7,0.9c0.7,0.2,1.6,0.2,2.6,0c0.8-0.1,1.5-0.4,2.1-0.7c0.6-0.4,1-0.8,1.2-1.4c0.2-0.6,0.3-1.2,0.2-1.9
				c-0.1-0.6-0.3-1.1-0.6-1.5c-0.3-0.4-0.9-0.8-1.8-1.3l0.1-0.2c0.9,0.3,1.6,0.8,2,1.3c0.5,0.6,0.8,1.2,0.9,2.1
				c0.2,1.5-0.1,2.8-1.1,3.8c-0.7,0.8-1.7,1.2-2.8,1.4c-0.9,0.1-1.8,0.1-2.6-0.2c-0.8-0.3-1.5-0.8-2-1.4c-0.5-0.7-0.9-1.4-1-2.3
				c-0.1-0.7,0-1.3,0.2-2c0.1-0.2,0.1-0.3,0.1-0.4c0-0.1-0.1-0.2-0.2-0.3c-0.1-0.1-0.3-0.2-0.5-0.2L18.5,92.5z"/>
			<path class="st8" d="M24.6,83.1l-0.1,3.6l1.5,0.7c0.4,0.2,0.6,0.2,0.8,0.2c0.1,0,0.3-0.1,0.4-0.2c0.1-0.1,0.2-0.4,0.2-0.9l0.3,0
				l-0.1,2.9l-0.3,0c-0.1-0.4-0.1-0.6-0.3-0.8c-0.2-0.2-0.7-0.5-1.3-0.8l-7.6-3.4l0-0.2l7.8-3.1c0.6-0.2,1-0.5,1.2-0.7
				c0.2-0.2,0.3-0.5,0.3-0.9l0.3,0l-0.1,3.7l-0.3,0c0-0.4-0.1-0.6-0.2-0.8c-0.1-0.1-0.2-0.2-0.4-0.2c-0.2,0-0.5,0.1-1,0.3L24.6,83.1
				z M24.1,83.3l-3.8,1.5l3.7,1.7L24.1,83.3z"/>
			<path class="st8" d="M20.2,68.8l3.1,0.4l0,0.2c-1,0.1-1.7,0.4-2.2,0.8c-0.5,0.4-0.8,1-1,1.7c-0.1,0.6-0.1,1.2,0.1,1.7
				c0.2,0.5,0.6,1,1.2,1.4c0.6,0.4,1.4,0.7,2.4,0.9c0.8,0.2,1.6,0.2,2.2,0c0.7-0.1,1.2-0.5,1.6-0.9c0.4-0.5,0.7-1,0.8-1.7
				c0.1-0.6,0.1-1.1-0.1-1.6c-0.2-0.5-0.6-1.1-1.2-1.8l0.2-0.2c0.7,0.6,1.2,1.3,1.5,1.9c0.3,0.7,0.3,1.4,0.1,2.3
				c-0.3,1.5-1.1,2.6-2.4,3.2c-1,0.5-2,0.6-3.1,0.3c-0.9-0.2-1.7-0.5-2.4-1.1c-0.7-0.6-1.2-1.2-1.4-2c-0.3-0.8-0.3-1.6-0.2-2.5
				c0.1-0.7,0.4-1.3,0.9-1.9c0.1-0.2,0.2-0.3,0.2-0.4c0-0.1,0-0.2-0.1-0.3c-0.1-0.1-0.2-0.3-0.5-0.3L20.2,68.8z"/>
			<path class="st8" d="M31.1,65.1l0.2,0.1L30.1,69l-0.2-0.1l0.1-0.3c0.1-0.4,0.1-0.7-0.1-0.9c-0.1-0.2-0.4-0.3-0.9-0.5l-5.7-1.9
				c-0.4-0.1-0.7-0.2-0.9-0.2c-0.1,0-0.2,0.1-0.4,0.2c-0.2,0.2-0.3,0.3-0.4,0.5l-0.1,0.3L21.3,66l1.3-3.8l0.2,0.1l-0.1,0.3
				c-0.1,0.4-0.1,0.7,0.1,0.9c0.1,0.2,0.4,0.3,0.9,0.5l5.7,1.9c0.4,0.1,0.7,0.2,0.9,0.2c0.1,0,0.2-0.1,0.4-0.2
				c0.2-0.2,0.3-0.3,0.4-0.5L31.1,65.1z"/>
			<path class="st8" d="M23.4,53l1.2,2.9l-0.1,0.2l-1.8-1.7L23.4,53z M25.3,55.5c0.5-1.1,1.4-1.8,2.6-2.2c1.2-0.4,2.4-0.3,3.7,0.3
				c1.3,0.6,2.1,1.5,2.5,2.8c0.4,1.2,0.4,2.4-0.2,3.5c-0.6,1.1-1.5,1.9-2.7,2.3c-1.2,0.4-2.4,0.2-3.7-0.4c-1.3-0.7-2.2-1.6-2.6-3
				C24.6,57.7,24.7,56.6,25.3,55.5z M25.7,55.9c-0.4,0.7-0.4,1.5-0.1,2.2c0.4,0.9,1.3,1.7,2.6,2.3c1.4,0.7,2.5,0.9,3.6,0.7
				c0.8-0.2,1.3-0.6,1.7-1.3c0.4-0.8,0.4-1.6,0-2.4c-0.4-0.8-1.2-1.5-2.5-2.2c-1.4-0.7-2.6-1-3.6-0.7C26.6,54.6,26,55.1,25.7,55.9z"
				/>
			<path class="st8" d="M28.7,49.4l1.5-2l9-0.3L35,43.8c-0.5-0.3-0.8-0.5-1-0.5c-0.3,0-0.5,0.2-0.7,0.5l-0.2,0.3l-0.2-0.2l1.9-2.6
				l0.2,0.2l-0.2,0.3c-0.2,0.3-0.3,0.6-0.2,0.9c0.1,0.2,0.3,0.4,0.7,0.7l6.2,4.7l-0.1,0.2l-9.6,0.4l4.6,3.4c0.5,0.3,0.8,0.5,1,0.5
				c0.3,0,0.5-0.2,0.7-0.5l0.2-0.3l0.2,0.2l-1.9,2.6l-0.2-0.2l0.2-0.3c0.2-0.3,0.3-0.6,0.2-0.9c-0.1-0.2-0.3-0.4-0.7-0.7l-5.1-3.9
				c-0.4,0-0.7,0.1-0.9,0.1c-0.2,0.1-0.4,0.2-0.6,0.3c-0.1,0.1-0.2,0.2-0.4,0.4L28.7,49.4z"/>
			<path class="st8" d="M46.3,30.7l2,2.1L48.1,33c-0.6-0.4-1.2-0.7-1.8-0.7c-0.8-0.1-1.5,0.2-2.2,0.7c-0.9,0.7-1.3,1.7-1.2,2.8
				c0.1,0.9,0.5,1.8,1.2,2.7c0.6,0.7,1.2,1.2,1.9,1.6c0.7,0.4,1.4,0.5,2,0.4c0.6-0.1,1.2-0.3,1.7-0.7c0.3-0.2,0.5-0.5,0.7-0.7
				c0.2-0.3,0.4-0.6,0.5-0.9l-1.7-2.1c-0.3-0.4-0.5-0.6-0.7-0.6c-0.1-0.1-0.3-0.1-0.5-0.1c-0.2,0-0.4,0.2-0.7,0.4l-0.2-0.2l2.8-2.2
				l0.2,0.2l-0.1,0.1c-0.3,0.2-0.4,0.5-0.4,0.7c0,0.2,0.2,0.5,0.5,0.9l1.8,2.2c-0.2,0.5-0.5,1-0.8,1.5c-0.3,0.4-0.7,0.8-1.2,1.2
				c-1.4,1.1-2.8,1.5-4.3,1.2c-1.1-0.2-2-0.8-2.7-1.7c-0.5-0.6-0.8-1.4-1-2.2c-0.2-1-0.1-1.9,0.2-2.8c0.3-0.7,0.8-1.4,1.5-2
				c0.3-0.2,0.5-0.4,0.8-0.5c0.2-0.1,0.6-0.3,1.1-0.4c0.3-0.1,0.4-0.2,0.5-0.2c0.1-0.1,0.1-0.1,0.1-0.2c0-0.1-0.1-0.2-0.2-0.4
				L46.3,30.7z"/>
			<path class="st8" d="M52.2,27.9l1.8,3.2l1.8-1c0.5-0.3,0.7-0.5,0.8-0.7c0.1-0.3,0-0.7-0.2-1.2l0.2-0.1l1.6,2.8L58,31.1
				c-0.3-0.4-0.5-0.6-0.6-0.7c-0.1-0.1-0.3-0.1-0.5-0.1c-0.2,0-0.5,0.1-0.8,0.3l-1.8,1l1.5,2.7c0.2,0.4,0.3,0.6,0.4,0.6
				c0.1,0.1,0.2,0.1,0.3,0.1c0.1,0,0.3-0.1,0.5-0.2l1.4-0.8c0.5-0.3,0.8-0.5,0.9-0.6c0.2-0.2,0.3-0.4,0.4-0.7
				c0.1-0.4,0.2-0.9,0.1-1.5L60,31l0.4,2.4l-6.3,3.4L54,36.6l0.3-0.2c0.2-0.1,0.3-0.3,0.5-0.4c0.1-0.1,0.1-0.3,0.1-0.4
				c0-0.2-0.1-0.4-0.4-0.8l-2.9-5.3c-0.3-0.5-0.5-0.8-0.7-0.9c-0.2-0.1-0.5,0-0.9,0.2l-0.3,0.2l-0.1-0.2l6.3-3.4L57,27l-0.2,0.1
				c-0.3-0.4-0.6-0.6-0.8-0.7c-0.2-0.1-0.4-0.1-0.7-0.1c-0.2,0-0.5,0.2-0.9,0.4L52.2,27.9z"/>
			<path class="st8" d="M63.6,21.9c1.1-0.4,2.3-0.3,3.4,0.3c1.1,0.6,1.9,1.5,2.4,2.8c0.5,1.3,0.4,2.6-0.1,3.7
				c-0.5,1.2-1.4,2-2.6,2.4c-1.2,0.4-2.4,0.3-3.5-0.2c-1.1-0.6-1.9-1.5-2.4-2.9c-0.5-1.4-0.4-2.7,0.2-3.9
				C61.6,23.1,62.4,22.3,63.6,21.9z M63.6,22.4c-0.8,0.3-1.3,0.8-1.6,1.5c-0.3,0.9-0.3,2.1,0.2,3.5c0.5,1.4,1.2,2.4,2.1,3
				c0.7,0.4,1.4,0.5,2.2,0.2c0.8-0.3,1.4-0.8,1.7-1.7c0.3-0.8,0.2-1.9-0.2-3.3c-0.5-1.5-1.2-2.5-2-3C65.2,22.2,64.5,22.2,63.6,22.4z
				"/>
			<path class="st8" d="M79,18.5l0.7,2.9l-0.2,0c-0.3-0.7-0.7-1.2-1.2-1.5c-0.6-0.4-1.4-0.6-2.2-0.5c-1.2,0.2-2,0.8-2.5,1.8
				c-0.4,0.9-0.5,1.8-0.4,2.9c0.1,0.9,0.4,1.6,0.9,2.3c0.4,0.7,1,1.1,1.6,1.4c0.6,0.3,1.2,0.3,1.8,0.3c0.3-0.1,0.7-0.1,1-0.3
				c0.3-0.1,0.6-0.3,0.9-0.5l-0.4-2.7c-0.1-0.5-0.1-0.8-0.2-0.9c-0.1-0.1-0.2-0.2-0.4-0.3c-0.2-0.1-0.4-0.1-0.8,0l0-0.3l3.6-0.5
				l0,0.3l-0.2,0c-0.4,0.1-0.6,0.2-0.7,0.5c-0.1,0.2-0.1,0.5,0,1l0.4,2.8c-0.5,0.4-1,0.6-1.4,0.8c-0.5,0.2-1,0.4-1.7,0.4
				c-1.8,0.3-3.2-0.1-4.3-1.1c-0.8-0.7-1.3-1.7-1.5-2.8c-0.1-0.8,0-1.6,0.2-2.4c0.3-0.9,0.9-1.7,1.6-2.3c0.6-0.5,1.4-0.8,2.3-0.9
				c0.3,0,0.6-0.1,0.9-0.1c0.3,0,0.7,0.1,1.2,0.2c0.3,0.1,0.4,0.1,0.5,0.1c0.1,0,0.2-0.1,0.2-0.2c0-0.1,0.1-0.2,0-0.5L79,18.5z"/>
			<path class="st8" d="M91.9,27.9l-2.5-0.1l-3-4.4c-0.2,0-0.4,0-0.6,0c-0.1,0-0.1,0-0.2,0c-0.1,0-0.1,0-0.2,0l-0.1,2.7
				c0,0.6,0,0.9,0.2,1.1c0.2,0.2,0.4,0.3,0.8,0.3l0.4,0l0,0.3l-4-0.1l0-0.3l0.3,0c0.4,0,0.7-0.1,0.9-0.4c0.1-0.1,0.2-0.5,0.2-1
				l0.2-6c0-0.6,0-0.9-0.2-1.1c-0.2-0.2-0.4-0.3-0.8-0.3l-0.3,0l0-0.3l3.4,0.1c1,0,1.7,0.1,2.2,0.3c0.5,0.2,0.9,0.4,1.2,0.8
				c0.3,0.4,0.5,0.9,0.5,1.4c0,0.6-0.2,1.1-0.6,1.5c-0.4,0.4-1,0.7-1.8,0.8l1.8,2.7c0.4,0.6,0.8,1,1.1,1.2c0.3,0.2,0.7,0.3,1.2,0.4
				L91.9,27.9z M85.5,23c0.1,0,0.2,0,0.2,0c0.1,0,0.1,0,0.2,0c0.9,0,1.6-0.1,2-0.5c0.5-0.4,0.7-0.9,0.7-1.4c0-0.6-0.2-1.1-0.5-1.4
				c-0.4-0.4-0.8-0.6-1.4-0.6c-0.3,0-0.6,0-1.1,0.1L85.5,23z"/>
			<path class="st8" d="M99.2,26.2l-3.5-0.7l-0.9,1.3c-0.2,0.3-0.4,0.6-0.4,0.7c0,0.1,0,0.3,0.1,0.4c0.1,0.1,0.4,0.3,0.8,0.4
				l-0.1,0.2L92.4,28l0.1-0.2c0.4,0,0.7,0,0.8-0.1c0.3-0.2,0.6-0.5,1-1.1l4.7-6.8l0.2,0l1.6,8.2c0.1,0.7,0.3,1.1,0.4,1.3
				c0.2,0.2,0.4,0.4,0.8,0.5L102,30l-3.6-0.7l0.1-0.2c0.4,0.1,0.6,0,0.8,0c0.1-0.1,0.2-0.2,0.3-0.3c0-0.2,0-0.5-0.1-1L99.2,26.2z
				 M99.1,25.7l-0.8-4L96,25L99.1,25.7z M101.2,17.3l-2.5,1.9l-0.2,0l1.2-2.2L101.2,17.3z"/>
			<path class="st8" d="M108.5,23.1l-1.3,3.4l1.6,0.6c0.4,0.1,0.7,0.2,0.9,0.1c0.2-0.1,0.5-0.4,0.7-0.8l0.2,0.1l-1.1,2.9l-0.2-0.1
				c0.1-0.3,0.2-0.6,0.2-0.8c0-0.2-0.1-0.4-0.2-0.5c-0.1-0.1-0.3-0.3-0.6-0.4L107,27l-1.1,2.7c-0.2,0.4-0.3,0.7-0.3,0.9
				c0,0.1,0.1,0.2,0.2,0.4c0.1,0.2,0.3,0.3,0.5,0.4l0.3,0.1l-0.1,0.2l-3.7-1.4l0.1-0.2l0.3,0.1c0.4,0.1,0.7,0.1,0.9,0
				c0.2-0.1,0.3-0.4,0.5-0.9l2.2-5.6c0.2-0.4,0.3-0.7,0.3-0.9c0-0.1-0.1-0.2-0.2-0.4c-0.1-0.2-0.3-0.3-0.5-0.4l-0.3-0.1l0.1-0.2
				l6.4,2.5l-0.7,1.9l-0.2-0.1c0-0.4,0-0.8,0-1c-0.1-0.2-0.2-0.5-0.4-0.6c-0.2-0.2-0.5-0.3-0.9-0.5L108.5,23.1z"/>
			<path class="st8" d="M114.3,35.2l-0.1,0.2l-3.5-1.9l0.1-0.2l0.3,0.2c0.3,0.2,0.6,0.2,0.9,0.1c0.2-0.1,0.4-0.4,0.6-0.9l2.8-5.3
				c0.2-0.4,0.3-0.7,0.4-0.9c0-0.1,0-0.3-0.1-0.4c-0.1-0.2-0.3-0.3-0.5-0.4l-0.3-0.2l0.1-0.2l3.5,1.9l-0.1,0.2l-0.3-0.2
				c-0.3-0.2-0.6-0.2-0.9-0.1c-0.2,0.1-0.4,0.4-0.6,0.9l-2.8,5.3c-0.2,0.4-0.3,0.7-0.4,0.9c0,0.1,0,0.3,0.1,0.4
				c0.1,0.2,0.3,0.3,0.5,0.4L114.3,35.2z"/>
			<path class="st8" d="M127.4,32.8l-1.6,2.7l-0.2-0.1c0.3-0.9,0.4-1.7,0.2-2.4c-0.2-0.6-0.6-1.2-1.2-1.6c-0.5-0.4-1-0.5-1.6-0.6
				c-0.6,0-1.2,0.1-1.8,0.5c-0.6,0.4-1.2,1-1.8,1.8c-0.5,0.7-0.8,1.4-0.9,2c-0.1,0.7-0.1,1.3,0.2,1.9c0.3,0.6,0.7,1.1,1.2,1.5
				c0.5,0.3,1,0.5,1.5,0.6c0.5,0.1,1.2-0.1,2.1-0.4l0.1,0.2c-0.9,0.4-1.6,0.6-2.4,0.5c-0.7,0-1.4-0.3-2.1-0.8
				c-1.3-0.9-1.9-2-1.9-3.5c0-1.1,0.3-2.1,1-3c0.5-0.8,1.2-1.3,2-1.7c0.8-0.4,1.6-0.6,2.4-0.5c0.8,0.1,1.6,0.4,2.3,0.9
				c0.5,0.4,1,0.9,1.3,1.5c0.1,0.2,0.2,0.3,0.2,0.4c0.1,0.1,0.2,0.1,0.3,0.1c0.2,0,0.3-0.1,0.5-0.3L127.4,32.8z"/>
			<path class="st8" d="M129.8,43.8l-2.5-2.6l-1.5,0.6c-0.4,0.1-0.6,0.3-0.7,0.4c-0.1,0.1-0.1,0.2-0.1,0.4c0,0.2,0.2,0.4,0.5,0.8
				l-0.2,0.2l-2-2.1l0.2-0.2c0.3,0.2,0.6,0.3,0.7,0.3c0.3,0,0.8-0.1,1.5-0.4l7.7-3l0.2,0.2l-3.2,7.7c-0.3,0.6-0.4,1.1-0.4,1.4
				c0,0.3,0.2,0.6,0.4,0.8l-0.2,0.2l-2.6-2.6l0.2-0.2c0.3,0.2,0.5,0.4,0.7,0.4c0.2,0,0.3,0,0.4-0.1c0.1-0.1,0.3-0.4,0.5-0.9
				L129.8,43.8z M130,43.3l1.6-3.7l-3.8,1.5L130,43.3z"/>
			<path class="st8" d="M137.6,51.7l-2.3,1.4c-0.5,0.3-0.8,0.6-0.8,0.7c-0.1,0.3,0,0.5,0.2,0.8l0.2,0.3l-0.2,0.1l-2.1-3.4l0.2-0.1
				l0.2,0.3c0.2,0.3,0.5,0.5,0.8,0.5c0.2,0,0.5-0.1,0.9-0.4l5.1-3.2c0.5-0.3,0.8-0.6,0.8-0.7c0.1-0.3,0-0.5-0.2-0.8l-0.2-0.3
				l0.2-0.1l1.8,2.9c0.4,0.7,0.7,1.3,0.8,1.8c0.1,0.5,0.1,1-0.1,1.5c-0.2,0.5-0.5,0.9-1,1.2c-0.6,0.4-1.3,0.5-2,0.3
				c-0.7-0.2-1.2-0.6-1.7-1.4c-0.1-0.2-0.2-0.4-0.3-0.6C137.8,52.3,137.7,52,137.6,51.7z M137.9,51.5c0.1,0.2,0.2,0.4,0.3,0.6
				c0.1,0.2,0.2,0.3,0.2,0.4c0.3,0.4,0.6,0.7,1.1,0.7c0.5,0.1,1,0,1.5-0.3c0.3-0.2,0.6-0.5,0.8-0.8c0.2-0.3,0.3-0.7,0.3-1
				c0-0.3-0.1-0.7-0.3-1c-0.1-0.2-0.3-0.4-0.6-0.7L137.9,51.5z"/>
			<path class="st8" d="M140.5,67.4l-1-2.3l2.8-4.6c-0.1-0.2-0.2-0.4-0.2-0.5c0-0.1,0-0.1-0.1-0.2c0-0.1,0-0.1-0.1-0.2l-2.5,1.1
				c-0.5,0.2-0.8,0.4-0.9,0.6c-0.1,0.2-0.1,0.5,0,0.8l0.1,0.3l-0.2,0.1l-1.6-3.7l0.2-0.1l0.1,0.3c0.2,0.4,0.4,0.6,0.7,0.6
				c0.2,0,0.5-0.1,1-0.3l5.5-2.3c0.5-0.2,0.8-0.4,0.9-0.6c0.1-0.2,0.1-0.5,0-0.8l-0.1-0.3l0.2-0.1l1.3,3.1c0.4,0.9,0.6,1.6,0.7,2.1
				c0,0.5,0,1-0.3,1.4c-0.2,0.5-0.6,0.8-1.1,1c-0.5,0.2-1.1,0.2-1.6,0.1c-0.5-0.2-1-0.6-1.5-1.2l-1.7,2.8c-0.4,0.6-0.6,1.1-0.7,1.5
				c-0.1,0.4,0,0.8,0.1,1.3L140.5,67.4z M142.3,59.4c0,0.1,0.1,0.1,0.1,0.2c0,0.1,0,0.1,0.1,0.1c0.3,0.8,0.8,1.4,1.3,1.6
				c0.5,0.3,1.1,0.3,1.6,0c0.5-0.2,0.9-0.6,1.1-1.1c0.2-0.5,0.2-1-0.1-1.5c-0.1-0.2-0.3-0.6-0.5-0.9L142.3,59.4z"/>
			<path class="st8" d="M151,70.6c0.3,1.2,0.1,2.3-0.6,3.4c-0.7,1.1-1.7,1.7-3,2c-1.4,0.3-2.6,0.1-3.7-0.5c-1.1-0.7-1.8-1.6-2.1-2.8
				c-0.3-1.2-0.1-2.4,0.6-3.4c0.7-1,1.7-1.7,3.1-2.1c1.4-0.3,2.7-0.1,3.8,0.7C150.1,68.5,150.8,69.4,151,70.6z M150.5,70.6
				c-0.2-0.8-0.6-1.4-1.3-1.7c-0.9-0.4-2-0.5-3.5-0.2c-1.5,0.3-2.5,0.9-3.2,1.7c-0.5,0.6-0.7,1.3-0.5,2.1c0.2,0.8,0.7,1.5,1.5,1.9
				c0.8,0.4,1.9,0.4,3.3,0.1c1.5-0.4,2.6-0.9,3.3-1.7C150.6,72.2,150.7,71.5,150.5,70.6z"/>
			<path class="st8" d="M152.6,85.7l-2.2,0.2l0-0.3c0.4-0.1,0.6-0.2,0.8-0.2c0.3-0.2,0.4-0.4,0.6-0.6c0.1-0.2,0.2-0.6,0.1-0.9
				l-0.1-1.3l-7.1,0.4c-0.6,0-0.9,0.1-1.1,0.2c-0.2,0.2-0.3,0.5-0.2,0.8l0,0.3l-0.3,0l-0.2-3.9l0.3,0l0,0.3c0,0.4,0.2,0.7,0.4,0.8
				c0.2,0.1,0.5,0.1,1,0.1l7.1-0.4l-0.1-1.1c0-0.4-0.1-0.7-0.1-0.9c-0.1-0.2-0.3-0.4-0.5-0.6c-0.3-0.2-0.6-0.2-1-0.2l0-0.3l2.2,0
				L152.6,85.7z"/>
			<path class="st8" d="M151.8,91l-3.6-0.4l-0.2,2c-0.1,0.5,0,0.9,0.1,1.1c0.2,0.3,0.5,0.4,1.1,0.5l0,0.3l-3.2-0.3l0-0.3
				c0.5,0,0.8-0.1,0.9-0.1c0.2-0.1,0.3-0.2,0.4-0.4c0.1-0.2,0.2-0.5,0.2-0.8l0.2-2l-3-0.3c-0.4,0-0.7,0-0.8,0
				c-0.1,0-0.2,0.1-0.2,0.2c-0.1,0.1-0.1,0.3-0.1,0.5l-0.2,1.6c-0.1,0.5-0.1,0.9,0,1.1c0,0.2,0.2,0.5,0.4,0.7c0.3,0.3,0.6,0.6,1.2,1
				l0,0.3l-2.2-1l0.7-7.1l0.3,0l0,0.3c0,0.2,0,0.4,0.1,0.6c0.1,0.2,0.2,0.3,0.3,0.3c0.1,0.1,0.4,0.1,0.9,0.2l6,0.6
				c0.6,0.1,1,0,1.1-0.1c0.2-0.1,0.3-0.4,0.4-0.8l0-0.3l0.3,0l-0.7,7.1l-2-0.1l0-0.3c0.5,0,0.8-0.1,1-0.2c0.2-0.1,0.3-0.3,0.5-0.5
				c0.1-0.2,0.2-0.5,0.2-0.9L151.8,91z"/>
			<path class="st8" d="M149.3,107l-2.9-0.6l0.1-0.2c0.8,0,1.4-0.2,1.8-0.5c0.7-0.4,1.1-1,1.3-1.8c0.3-1.1,0.1-2.1-0.6-3
				c-0.6-0.7-1.5-1.2-2.5-1.5c-0.9-0.2-1.7-0.3-2.5-0.2c-0.8,0.1-1.4,0.4-1.9,0.9c-0.5,0.4-0.8,0.9-0.9,1.5c-0.1,0.3-0.1,0.7-0.1,1
				c0,0.3,0,0.7,0.1,1l2.6,0.7c0.4,0.1,0.8,0.2,0.9,0.1c0.2,0,0.3-0.1,0.4-0.2c0.1-0.1,0.2-0.4,0.3-0.7l0.3,0.1l-1,3.5l-0.2-0.1
				l0-0.2c0.1-0.3,0-0.6-0.1-0.8c-0.1-0.1-0.4-0.3-0.9-0.4l-2.7-0.8c-0.1-0.6-0.2-1.1-0.2-1.7c0-0.5,0.1-1.1,0.3-1.7
				c0.5-1.7,1.4-2.9,2.8-3.5c1-0.4,2.1-0.5,3.2-0.2c0.8,0.2,1.5,0.6,2.1,1.2c0.7,0.7,1.2,1.5,1.5,2.4c0.2,0.8,0.2,1.6-0.1,2.5
				c-0.1,0.3-0.2,0.6-0.3,0.9c-0.1,0.3-0.3,0.6-0.7,1c-0.2,0.2-0.3,0.4-0.3,0.5c0,0.1,0,0.2,0.1,0.2c0.1,0.1,0.2,0.2,0.4,0.2
				L149.3,107z"/>
			<path class="st8" d="M137.9,110.5l-0.2-0.1l1.6-3.6l0.2,0.1l-0.1,0.3c-0.2,0.4-0.2,0.7,0,0.9c0.1,0.2,0.4,0.3,0.9,0.6l5.5,2.4
				c0.4,0.2,0.7,0.3,0.9,0.3c0.1,0,0.2,0,0.4-0.1c0.2-0.1,0.3-0.3,0.4-0.5l0.1-0.3l0.2,0.1l-1.6,3.6l-0.2-0.1l0.1-0.3
				c0.2-0.3,0.2-0.6,0-0.9c-0.1-0.2-0.4-0.4-0.9-0.6l-5.5-2.4c-0.4-0.2-0.7-0.3-0.9-0.3c-0.1,0-0.3,0-0.4,0.1
				c-0.2,0.1-0.3,0.3-0.4,0.5L137.9,110.5z"/>
			<path class="st8" d="M137.3,111.4l0.2,0.1l-0.2,0.3c-0.2,0.3-0.2,0.6-0.1,0.9c0.1,0.2,0.3,0.4,0.8,0.7l5.1,3.1
				c0.5,0.3,0.8,0.4,1,0.4c0.3,0,0.5-0.2,0.7-0.5l0.2-0.3l0.2,0.1l-2,3.2c-0.7,1.2-1.4,2-2,2.5c-0.6,0.5-1.4,0.7-2.2,0.7
				c-0.9,0-1.7-0.3-2.5-0.8c-1.1-0.7-1.8-1.6-2.2-2.7c-0.4-1.3-0.1-2.6,0.9-4.2L137.3,111.4z M136.5,114c-0.4,0.4-0.7,0.8-0.9,1.1
				c-0.5,0.9-0.7,1.8-0.4,2.8c0.3,1,1,1.8,2,2.5c1.1,0.7,2.1,0.9,3.1,0.7c1-0.2,1.8-0.8,2.3-1.7c0.2-0.4,0.4-0.8,0.6-1.3L136.5,114z
				"/>
			<path class="st8" d="M129.9,127.1l2.4-2.7l-0.7-1.4c-0.2-0.4-0.3-0.6-0.4-0.7c-0.1-0.1-0.2-0.1-0.4-0.1c-0.2,0-0.4,0.2-0.7,0.5
				l-0.2-0.2l1.9-2.2l0.2,0.2c-0.2,0.3-0.3,0.6-0.3,0.7c0,0.3,0.2,0.8,0.5,1.5l3.5,7.5l-0.2,0.2l-7.9-2.7c-0.6-0.2-1.1-0.3-1.4-0.3
				c-0.3,0-0.6,0.2-0.8,0.5l-0.2-0.2l2.4-2.7l0.2,0.2c-0.2,0.3-0.4,0.5-0.4,0.7s0,0.3,0.2,0.4c0.1,0.1,0.4,0.3,0.9,0.4L129.9,127.1z
				 M130.4,127.3l3.8,1.3l-1.7-3.7L130.4,127.3z"/>
			<path class="st8" d="M126.2,136.7c-0.5,0.4-1,0.5-1.5,0.4c-0.6-0.1-1-0.3-1.4-0.8c-0.4-0.4-0.5-1-0.4-1.5c0.1-0.6,0.3-1,0.8-1.4
				c0.5-0.4,1-0.5,1.5-0.4c0.6,0.1,1,0.3,1.4,0.8c0.4,0.4,0.5,1,0.4,1.5C126.9,135.9,126.7,136.4,126.2,136.7z"/>
		</g>
		<g>
			<path class="st9" d="M58.2,139.1c0.3-0.4,1.2-1.7,1.5-2.1l7.1,3l-0.2,0.4c-1.4-0.5-1.6-0.4-2.1,0.8l-2.5,5.9
				c-0.6,1.3-0.5,1.4,0.6,2l-0.2,0.4l-6.6-2.8c0.2-0.4,0.5-1.4,0.8-2.2l0.5,0.1c-0.1,0.7-0.1,1.1-0.1,1.5c0.1,0.4,0.4,0.7,1.5,1.1
				l1.1,0.5c0.5,0.2,0.5,0.2,0.7-0.3l1.4-3.3l-1.4-0.6c-1.3-0.6-1.5-0.5-2.1,0.4l-0.4-0.2l1.2-2.8l0.4,0.2c-0.3,1.1-0.2,1.3,1.1,1.8
				l1.4,0.6l1.2-2.8c0.3-0.7,0.3-1,0.2-1.3c-0.2-0.3-0.7-0.5-1.5-0.8c-1.1-0.5-1.6-0.5-2.1-0.3c-0.4,0.2-0.9,0.6-1.3,1.1L58.2,139.1
				z"/>
			<path class="st9" d="M49.9,140.4c-0.3,1-0.5,2.2,0.7,2.9c1.1,0.6,2,0.1,2.4-0.6c0.6-1,0.2-1.9-0.5-3.1c-0.7-1.2-1.7-2.6-0.7-4.2
				c0.9-1.4,2.8-1.9,4.6-0.8c0.6,0.3,0.9,0.7,1.2,1c0.3,0.3,0.4,0.5,0.5,0.7c-0.1,0.4-0.6,1.6-0.9,2.3l-0.5-0.1
				c0.3-1,0.5-2.7-0.9-3.6c-1-0.6-2-0.3-2.6,0.7c-0.6,1-0.1,1.9,0.6,3.1c0.6,1,1.6,2.5,0.6,4.1c-0.8,1.3-2.5,1.8-4.3,0.7
				c-0.6-0.4-1.1-0.9-1.5-1.4c0.2-0.5,0.5-1.1,0.9-2L49.9,140.4z"/>
			<path class="st9" d="M43,138.4c-0.9-0.7-1.5-1.4-1.7-2.2c-0.2-0.8-0.1-1.6,0.6-2.4c1.3-1.6,3.1-1.4,4.5-0.6
				c0.2,0.1,0.4,0.3,0.6,0.5l0.7,1l1.6-2c0.8-1.1,0.8-1.2-0.3-2.2l0.3-0.3l3.4,2.7l-0.3,0.3c-1.1-0.7-1.2-0.7-2.1,0.3l-4,5
				c-0.9,1.1-0.8,1.2,0.1,2l-0.3,0.3L43,138.4z M47.3,135c-0.1-0.2-0.4-0.5-0.8-0.9c-0.8-0.6-2.2-1-3.4,0.6
				c-1.1,1.3-0.7,2.6,0.3,3.4c0.4,0.3,0.7,0.4,0.8,0.4c0.2,0,0.3-0.1,0.6-0.5L47.3,135z"/>
			<path class="st9" d="M38.6,123.1c0.5-0.3,1.8-1.1,2.2-1.3l5.2,5.6l-0.3,0.3c-1.1-1-1.3-1-2.2-0.1l-4.7,4.3c-1.1,1-1,1.1-0.2,2.1
				l-0.3,0.3l-4.9-5.2c0.3-0.3,1-1.1,1.6-1.7l0.4,0.3c-0.4,0.6-0.5,0.9-0.7,1.3c-0.1,0.4,0.1,0.8,0.9,1.6l0.8,0.9
				c0.3,0.4,0.4,0.4,0.7,0l2.7-2.5l-1-1.1c-1-1.1-1.1-1-2.1-0.4l-0.3-0.3l2.2-2.1l0.3,0.3c-0.7,0.9-0.7,1.1,0.3,2.1l1,1.1l2.2-2.1
				c0.6-0.5,0.7-0.8,0.7-1.2c-0.1-0.4-0.4-0.8-1-1.4c-0.8-0.9-1.2-1.1-1.8-1.1c-0.4,0-1,0.2-1.6,0.5L38.6,123.1z"/>
			<path class="st9" d="M32.5,114.4c0.7-0.2,1.9-0.5,2.5-0.6c0.3,0.3,1.3,1.3,2,2.2c2.2,3.3,0.9,6.3-1.3,7.7
				c-2.8,1.9-6.1,0.9-8.1-2.1c-0.7-1.1-1-2.2-1.2-2.6c0.7-0.6,1.2-1,1.8-1.6l0.4,0.3c-1.2,1.3-1.2,2.5-0.3,3.9
				c1.5,2.2,4.1,2.2,6.2,0.8c2.5-1.7,3.2-4.2,1.9-6.3c-0.9-1.4-2.1-1.6-3.9-1.4L32.5,114.4z"/>
			<path class="st9" d="M34.6,112.3l-0.4,0.2c-0.7-1.1-0.8-1.2-2-0.6l-5.8,2.8c-1.2,0.6-1.3,0.8-0.8,2l-0.4,0.2l-1.9-3.8l0.4-0.2
				c0.7,1.1,0.8,1.2,2,0.6l5.8-2.8c1.2-0.6,1.3-0.8,0.8-2l0.4-0.2L34.6,112.3z"/>
			<path class="st9" d="M30.5,102.4l-0.4,0.1c-0.4-0.9-0.6-1-1.1-0.6c-0.5,0.4-1.2,1-2.1,1.6l1.1,3.2c0.8,0,1.5,0,2.2,0
				c1.1,0,1.2-0.2,0.9-1.3l0.4-0.1l1.1,3.3l-0.4,0.1c-0.5-0.9-0.6-1.1-2.1-1.2l-9-0.5l-0.3-0.4c2.3-1.8,4.8-3.8,7.1-5.7
				c1.1-0.9,1.2-1.2,1-2.2l0.4-0.1L30.5,102.4z M22.8,106.6L22.8,106.6c1.5,0.1,3,0.1,4.4,0.2l-0.9-2.8L22.8,106.6z"/>
			<path class="st9" d="M25.5,90.9c0.5,0,2.1,0.1,2.6,0.2l1.2,7.2l-0.4,0.1c-0.3-1.3-0.4-1.4-1.8-1.2l-6.3,1
				c-1.3,0.2-1.4,0.3-1.3,1.6L19,99.8l-0.7-4.1l0.4-0.1c0.3,1.2,0.4,1.4,1.7,1.1l6.2-1c0.9-0.1,1.2-0.3,1.3-0.6
				c0.1-0.3,0.1-0.9,0-1.5c-0.1-0.9-0.3-1.4-0.8-1.7c-0.4-0.2-0.9-0.4-1.7-0.6L25.5,90.9z"/>
			<path class="st9" d="M28,89.9l-0.4,0c-0.2-1.3-0.3-1.4-1.6-1.4l-6.4,0.3c-1.4,0.1-1.4,0.2-1.5,1.5l-0.4,0l-0.2-4.2l0.4,0
				c0.2,1.3,0.3,1.4,1.6,1.4l6.4-0.3c1.4-0.1,1.4-0.2,1.5-1.5l0.4,0L28,89.9z"/>
			<path class="st9" d="M17.8,79.3c0.2-2,0.8-3.5,1.8-4.4c0.8-0.7,2.1-1.1,3.6-1c1.9,0.2,3.3,1.1,4.1,2.4c0.8,1.3,1.1,2.9,0.9,4.9
				l-0.4,3.8l-0.4,0c0-1.4,0-1.5-1.4-1.6l-6.4-0.6c-1.4-0.1-1.4,0-1.7,1.2l-0.5,0L17.8,79.3z M25.8,81.8c1.2,0.1,1.6-0.4,1.7-1.5
				c0.3-3-1.8-4.6-4.4-4.8c-1.6-0.2-3.1,0.3-4,1.5c-0.5,0.7-0.8,1.6-0.9,2.6c-0.1,0.7,0,1.1,0.1,1.3c0.1,0.2,0.3,0.2,0.9,0.3
				L25.8,81.8z"/>
			<path class="st9" d="M30.5,68.1L30,68c0.2-1,0.1-1.2-0.6-1.1c-0.7,0-1.6,0.1-2.6,0.2l-0.9,3.3c0.6,0.4,1.2,0.9,1.8,1.2
				c0.9,0.6,1.1,0.5,1.5-0.6l0.4,0.1l-1,3.3l-0.4-0.1c0.1-1,0.1-1.2-1.1-2.2L20,66.6l0-0.5c2.9-0.2,6.1-0.4,9.1-0.6
				c1.5-0.1,1.7-0.3,2-1.2l0.4,0.1L30.5,68.1z M21.8,67.3L21.8,67.3c1.2,0.9,2.4,1.8,3.5,2.6l0.8-2.8L21.8,67.3z"/>
			<path class="st9" d="M24.5,55.2c0.9-1.8,2-3,3.3-3.4c1-0.4,2.3-0.3,3.7,0.4c1.7,0.9,2.7,2.2,2.9,3.7c0.3,1.5-0.1,3.1-1,4.8
				l-1.7,3.4l-0.4-0.2c0.5-1.3,0.5-1.4-0.7-2l-5.7-2.9c-1.2-0.6-1.3-0.5-2,0.5l-0.4-0.2L24.5,55.2z M31.1,60.5
				c1.1,0.5,1.6,0.2,2.1-0.8c1.4-2.7,0-4.9-2.3-6.1c-1.5-0.7-3-0.8-4.3,0c-0.7,0.4-1.3,1.2-1.8,2.1c-0.3,0.6-0.4,1-0.4,1.2
				c0,0.2,0.2,0.3,0.7,0.6L31.1,60.5z"/>
			<path class="st9" d="M38.3,39.6c-0.7-0.4-1.1-0.5-1.4-0.5c-0.5-0.1-0.7,0.1-1.5,1l-0.7,0.9l6,5.1c1,0.8,1.2,0.8,2.2-0.3l0.3,0.3
				l-3,3.5l-0.3-0.3c0.9-1.2,0.8-1.4-0.1-2.2l-6-5.1l-0.6,0.8c-0.9,1-1,1.3-0.8,1.7c0.1,0.3,0.3,0.7,0.7,1.3l-0.3,0.4
				c-0.7-0.7-1.4-1.4-2.1-2l0.2-0.2c0.4,0.1,0.6-0.1,0.9-0.4l4.1-4.8c0.3-0.3,0.3-0.5,0.2-0.9l0.2-0.3c0.6,0.5,1.5,1.2,2.3,1.7
				L38.3,39.6z"/>
			<path class="st9" d="M52.4,38c-0.1,0.1-0.3,0.2-0.4,0.3c-1,0.7-1.7,0.9-2.9,0.6c-0.9-0.2-2-0.6-2.9-0.9c-0.5-0.2-0.8-0.1-1.5,0.4
				l-0.4,0.3l1.6,1.9c0.9,1,1,1,2.1,0.3l0.3,0.3L45.1,44l-0.3-0.3c0.9-0.9,1-1.1,0.1-2.1l-4.1-4.9c-0.9-1-1-1-2-0.3l-0.3-0.3l3-2.6
				c0.9-0.8,1.6-1.1,2.3-1.2c0.8-0.1,1.5,0.2,2.2,0.9c0.9,1.1,0.8,2.2,0.2,3.4c0.5,0.2,1.8,0.6,2.6,0.9c1,0.3,1.5,0.4,2.1,0.4
				c0.6,0.1,1,0,1.4-0.2L52.4,38z M44.5,37.8c0.6-0.5,0.9-1,1-1.5c0.2-0.8,0-1.4-0.6-2.1c-1.1-1.3-2.4-1.1-3.3-0.3
				c-0.4,0.3-0.5,0.5-0.6,0.7c0,0.1,0,0.3,0.3,0.7l2.5,3L44.5,37.8z"/>
			<path class="st9" d="M57.8,34.7l-0.2-0.4c0.8-0.6,0.9-0.8,0.4-1.2c-0.5-0.4-1.2-1-2-1.7L53,33.1c0.1,0.8,0.3,1.5,0.4,2.1
				c0.2,1,0.4,1.1,1.5,0.6l0.2,0.4l-3,1.7L52,37.6c0.8-0.6,0.9-0.8,0.7-2.3l-1.3-8.9l0.4-0.4c2.2,1.9,4.7,4,7,5.9
				c1.1,0.9,1.4,1,2.3,0.5l0.2,0.4L57.8,34.7z M52.2,28L52.2,28c0.2,1.5,0.5,2.9,0.7,4.3l2.5-1.5L52.2,28z"/>
			<path class="st9" d="M62.5,21.2c1.9-0.7,3.5-0.8,4.7-0.2c1,0.5,1.9,1.4,2.4,2.8c0.6,1.8,0.4,3.4-0.5,4.7c-0.8,1.3-2.2,2.2-4,2.8
				l-3.6,1.2l-0.1-0.4c1.3-0.5,1.4-0.7,0.9-2l-2.1-6.1c-0.5-1.3-0.6-1.3-1.8-1l-0.2-0.4L62.5,21.2z M63.6,29.6
				c0.4,1.1,1,1.3,2.1,0.9c2.8-1,3.4-3.6,2.5-6c-0.5-1.6-1.6-2.7-3-3c-0.8-0.2-1.8-0.1-2.8,0.3c-0.6,0.2-1,0.4-1.1,0.6
				c-0.1,0.2-0.1,0.3,0.1,0.9L63.6,29.6z"/>
			<path class="st9" d="M72.3,29.1l-0.1-0.4c1.3-0.3,1.4-0.5,1.1-1.8l-1.2-6.3c-0.3-1.3-0.4-1.4-1.7-1.2l-0.1-0.4l4.2-0.8l0.1,0.4
				c-1.3,0.3-1.4,0.5-1.1,1.8l1.2,6.3c0.3,1.4,0.4,1.4,1.7,1.2l0.1,0.4L72.3,29.1z"/>
			<path class="st9" d="M86.7,24.8c-0.2,0.7-0.5,2-0.8,2.5c-0.4,0.1-1.8,0.5-2.9,0.6c-4,0.3-5.9-2.4-6-4.9c-0.2-3.4,2.2-5.7,5.8-6
				c1.3-0.1,2.4,0.2,2.9,0.3c0.2,0.9,0.3,1.5,0.5,2.4l-0.5,0.1c-0.5-1.7-1.5-2.3-3.2-2.2c-2.7,0.2-3.9,2.5-3.8,4.9
				c0.2,3,2.1,4.9,4.5,4.8c1.6-0.1,2.4-1,3.1-2.7L86.7,24.8z"/>
			<path class="st9" d="M87.4,27.6l0-0.4c1.3,0,1.5-0.1,1.5-1.5l0.4-6.4c0.1-1.4,0-1.5-1.3-1.6l0-0.4l4.2,0.3l0,0.4
				c-1.3,0-1.5,0.1-1.5,1.5l-0.4,6.4c-0.1,1.4,0,1.5,1.3,1.6l0,0.4L87.4,27.6z"/>
			<path class="st9" d="M103.9,24.7c-0.7,3.4-3.5,4.9-6.4,4.3c-2.8-0.6-4.6-3.3-4-6.3c0.6-2.8,3.1-5,6.4-4.3
				C102.6,19,104.5,21.6,103.9,24.7z M95.2,22.7c-0.6,2.9,0.5,5.4,2.7,5.9c1.7,0.4,3.6-0.8,4.2-3.8c0.7-3.3-0.6-5.4-2.7-5.9
				C97.7,18.6,95.8,19.8,95.2,22.7z"/>
			<path class="st9" d="M117.4,25.3c-0.8-0.3-1.3-0.3-1.6,0.4c-0.2,0.4-0.6,1.1-1.2,2.4l-2.5,5.9l-0.5-0.2l-3-10.4l0,0l-1.6,3.7
				c-0.6,1.4-0.8,2.1-1,2.5c-0.2,0.8,0,1.1,1,1.6l-0.2,0.4l-3.5-1.5l0.2-0.4c0.9,0.3,1.3,0.3,1.7-0.4c0.2-0.4,0.6-1.1,1.2-2.5
				l1.4-3.2c0.5-1.1,0.5-1.1,0.3-1.6c-0.1-0.5-0.4-0.8-1.1-1.1l0.2-0.4l2.2,0.9l3,10l0,0l1.6-3.6c0.6-1.4,0.8-2.1,0.9-2.5
				c0.2-0.7-0.1-1-1-1.5l0.2-0.4l3.5,1.5L117.4,25.3z"/>
			<path class="st9" d="M118.6,37.9l0.2-0.4c0.9,0.5,1.1,0.4,1.3-0.2c0.2-0.6,0.4-1.5,0.6-2.5l-2.8-1.9c-0.6,0.5-1.2,0.9-1.7,1.3
				c-0.9,0.6-0.8,0.9,0.1,1.6l-0.2,0.4l-2.9-1.9l0.2-0.4c0.9,0.4,1.2,0.5,2.4-0.4l7.4-5.2l0.5,0.2c-0.7,2.8-1.5,6-2.2,8.8
				c-0.3,1.4-0.2,1.7,0.6,2.3l-0.2,0.4L118.6,37.9z M122,30L122,30c-1.2,0.8-2.4,1.7-3.5,2.5l2.4,1.6L122,30z"/>
			<path class="st9" d="M129.6,44c-0.4,0.3-1.7,1.2-2.1,1.4l-5.3-4.9l0.3-0.3c1,0.8,1.2,0.9,2.1-0.1l4.4-4.7c0.9-1,0.9-1.1,0-2.1
				l0.3-0.3l3.1,2.8l-0.3,0.3c-1-0.8-1.2-0.8-2.1,0.2l-4.3,4.6c-0.6,0.6-0.7,0.9-0.6,1.2c0.1,0.3,0.5,0.7,1,1.2
				c0.6,0.6,1.1,0.9,1.7,0.9c0.4,0,1-0.2,1.7-0.6L129.6,44z"/>
			<path class="st9" d="M140,54.9c-0.7-0.7-0.8-0.7-1.5-0.2l-1.1,0.8c-0.5,0.3-0.9,0.6-1.2,0.9c-0.8-0.7-1.8-1.6-2.5-2.6
				c-2-2.9-1.5-6.1,1.1-7.9c3.1-2.1,6.2-0.6,8,2c0.7,1.1,1.1,2.3,1.3,2.8c-0.4,0.4-1.1,0.9-1.9,1.6l-0.3-0.3c1.4-1.4,1.2-2.7,0.3-4
				c-1.4-2-3.9-2.5-6.3-0.8c-1.9,1.3-3.4,3.9-1.6,6.5c0.3,0.5,0.7,0.8,1,1c0.3,0.2,0.6,0.2,1.1-0.2l1.1-0.8c1-0.6,1-0.8,0.2-2.2
				l0.4-0.2l2.3,3.4L140,54.9z"/>
			<path class="st9" d="M139,63.6l0.4-0.2c0.5,0.9,0.7,1,1.2,0.5c0.5-0.4,1.2-1.1,1.9-1.8l-1.4-3.1c-0.8,0.1-1.5,0.1-2.2,0.2
				c-1.1,0.1-1.2,0.3-0.8,1.4l-0.4,0.2l-1.4-3.2l0.4-0.2c0.5,0.9,0.7,1,2.2,1l9-0.3l0.3,0.4c-2.1,2-4.5,4.2-6.6,6.2
				c-1.1,1-1.1,1.3-0.8,2.3l-0.4,0.2L139,63.6z M146.3,58.7L146.3,58.7c-1.5,0-3,0.1-4.4,0.2l1.2,2.7L146.3,58.7z"/>
			<path class="st9" d="M142.7,76.8c0-0.2-0.1-0.4-0.1-0.5c-0.2-1.2,0-1.9,0.8-2.9c0.6-0.7,1.5-1.5,2.1-2.2c0.4-0.4,0.5-0.7,0.3-1.5
				l-0.1-0.5l-2.5,0.6c-1.3,0.3-1.4,0.5-1.2,1.7l-0.4,0.1l-1-4.1l0.4-0.1c0.4,1.3,0.5,1.4,1.8,1.1l6.3-1.5c1.3-0.3,1.3-0.5,1.2-1.7
				l0.4-0.1l0.9,3.9c0.3,1.1,0.3,1.9,0.1,2.6c-0.3,0.7-0.9,1.3-1.8,1.5c-1.3,0.3-2.4-0.3-3.1-1.3c-0.5,0.4-1.3,1.3-1.9,1.9
				c-0.7,0.8-1,1.2-1.3,1.6c-0.4,0.5-0.5,0.9-0.5,1.3L142.7,76.8z M146.4,69.9c0.2,0.8,0.4,1.3,0.8,1.6c0.6,0.5,1.3,0.6,2.1,0.4
				c1.7-0.4,2-1.7,1.8-2.8c-0.1-0.5-0.2-0.7-0.4-0.8c-0.1-0.1-0.3-0.1-0.7,0l-3.8,0.9L146.4,69.9z"/>
			<path class="st9" d="M143.2,83.2l0.4,0c0.2,1,0.3,1.1,0.9,0.9c0.6-0.2,1.5-0.6,2.4-1l-0.2-3.4c-0.7-0.2-1.4-0.4-2.1-0.6
				c-1-0.3-1.2-0.1-1.2,1.1l-0.4,0l-0.2-3.5l0.4,0c0.2,1,0.3,1.2,1.7,1.7l8.6,2.8l0.2,0.5c-2.7,1.2-5.7,2.4-8.4,3.6
				c-1.3,0.6-1.5,0.8-1.5,1.9l-0.4,0L143.2,83.2z M151.7,81.1L151.7,81.1c-1.4-0.5-2.8-0.9-4.2-1.3l0.2,2.9L151.7,81.1z"/>
			<path class="st9" d="M151.9,99.6c0.1-0.9-0.1-1.3-0.8-1.5c-0.5-0.1-1.2-0.3-2.7-0.4l-6.4-0.8l0.1-0.5l9.2-5.7l0,0l-4-0.5
				c-1.5-0.2-2.2-0.2-2.7-0.3c-0.8,0-1.1,0.3-1.3,1.4l-0.4-0.1l0.5-3.8l0.4,0.1c-0.1,0.9,0.1,1.4,0.8,1.5c0.5,0.1,1.2,0.3,2.7,0.5
				l3.5,0.5c1.2,0.2,1.2,0.1,1.6-0.1c0.4-0.3,0.6-0.6,0.8-1.3l0.4,0.1l-0.3,2.3l-8.8,5.6l0,0l3.9,0.5c1.5,0.2,2.2,0.2,2.7,0.2
				c0.7,0,1-0.3,1.2-1.4l0.4,0.1l-0.5,3.7L151.9,99.6z"/>
			<path class="st9" d="M146.8,109.2c0.8,0.1,1.2,0.1,1.5-0.1c0.4-0.1,0.6-0.4,1-1.5l0.3-1.1l-7.5-2.4c-1.2-0.4-1.4-0.3-2,1.1
				l-0.4-0.1l1.4-4.4l0.4,0.1c-0.4,1.4-0.2,1.6,1,2l7.5,2.4l0.3-0.9c0.4-1.3,0.4-1.6,0.1-1.9c-0.2-0.3-0.6-0.5-1.2-0.9l0.1-0.4
				c0.9,0.4,1.9,0.8,2.7,1.1l-0.1,0.3c-0.4,0.1-0.5,0.3-0.7,0.7l-1.9,6c-0.1,0.4-0.1,0.6,0.1,0.9l-0.1,0.3c-0.7-0.2-1.8-0.5-2.7-0.7
				L146.8,109.2z"/>
			<path class="st9" d="M138.7,107.9l0.4,0.2c-0.5,1.2-0.4,1.4,0.8,2l5.8,2.7c1.2,0.6,1.4,0.5,2-0.6l0.4,0.2l-1.8,3.8l-0.4-0.2
				c0.5-1.2,0.4-1.4-0.8-2l-5.8-2.7c-1.2-0.6-1.4-0.5-2,0.6l-0.4-0.2L138.7,107.9z"/>
			<path class="st9" d="M134.1,121.5c-0.4-0.4-1.5-1.5-2-2l4.4-7l0.3,0c1.5,3.6,2.9,7.2,4.5,10.8l1.5-2.4c0.9-1.5,0.9-1.8,0.7-2.2
				c-0.1-0.3-0.4-0.7-0.9-1.2l0.3-0.4c0.8,0.6,1.8,1.3,2.4,1.7l-0.2,0.3c-0.4,0-0.5,0.1-0.8,0.5l-3.4,5.4l-0.2,0
				c-1.5-3.6-2.9-7.1-4.5-10.7c-0.3,0.4-0.9,1.2-1.5,2.2c-1.1,1.7-1.3,2.3-1.1,2.9c0.1,0.5,0.4,0.9,0.9,1.6L134.1,121.5z"/>
			<path class="st9" d="M127.3,125.1l0.3,0.3c-0.6,0.8-0.6,1,0,1.3c0.6,0.3,1.5,0.6,2.4,1l2.3-2.5c-0.4-0.7-0.7-1.3-1.1-1.9
				c-0.5-0.9-0.7-0.9-1.6-0.1l-0.3-0.3l2.3-2.6l0.3,0.3c-0.6,0.8-0.7,1.1,0,2.4l4,8.1l-0.2,0.5c-2.7-1.1-5.7-2.4-8.4-3.5
				c-1.4-0.5-1.6-0.5-2.4,0.2l-0.3-0.3L127.3,125.1z M134.7,129.7L134.7,129.7c-0.7-1.3-1.3-2.6-2-3.9l-2,2.2L134.7,129.7z"/>
			<path class="st9" d="M126.9,139.3c-1.6,1.2-3.1,1.8-4.4,1.6c-1.1-0.1-2.2-0.7-3.1-1.9c-1.2-1.5-1.4-3.1-1-4.6
				c0.4-1.5,1.4-2.7,3-3.9l3-2.3l0.3,0.3c-1,0.9-1.1,1.1-0.3,2.1l3.9,5.1c0.8,1.1,1,1.1,2,0.4l0.3,0.4L126.9,139.3z M123.4,131.6
				c-0.7-1-1.3-0.9-2.3-0.2c-2.4,1.8-2.1,4.4-0.6,6.5c1,1.3,2.3,2.1,3.8,1.9c0.9-0.1,1.7-0.5,2.6-1.1c0.5-0.4,0.8-0.7,0.9-0.9
				c0.1-0.2,0-0.4-0.4-0.9L123.4,131.6z"/>
			<path class="st9" d="M110.2,137.5l0.2,0.4c-0.8,0.6-0.9,0.7-0.5,1.2c0.5,0.5,1.1,1.1,1.9,1.8l3-1.5c-0.1-0.8-0.2-1.5-0.3-2.2
				c-0.1-1.1-0.3-1.1-1.5-0.7l-0.2-0.4l3.1-1.6l0.2,0.4c-0.8,0.6-1,0.8-0.9,2.3l0.8,9l-0.4,0.4c-2.1-2-4.4-4.3-6.6-6.3
				c-1.1-1-1.3-1-2.3-0.7l-0.2-0.4L110.2,137.5z M115.4,144.4L115.4,144.4c-0.1-1.5-0.3-2.9-0.5-4.3l-2.6,1.3L115.4,144.4z"/>
		</g>
		<circle class="st10" cx="71.8" cy="146.4" r="1.7"/>
		<circle class="st10" cx="102" cy="145.8" r="1.7"/>
	</g>
</g>
<g id="IGP">
	<g>
		<polygon class="st5" points="91.4,9.2 98.8,1.1 103.3,11 111.8,4.2 114.7,14.8 124.2,9.3 125.4,20.2 135.6,16.3 135.1,27.3 
			145.8,25 143.6,35.8 154.5,35.2 150.7,45.5 161.5,46.7 156.1,56.2 166.7,59 159.8,67.6 169.8,72.1 161.7,79.4 170.8,85.4 
			161.7,91.4 169.8,98.8 159.8,103.3 166.7,111.8 156.1,114.7 161.5,124.2 150.6,125.4 154.5,135.6 143.6,135.1 145.8,145.8 
			135.1,143.6 135.6,154.5 125.4,150.7 124.2,161.5 114.7,156.1 111.8,166.7 103.3,159.8 98.8,169.8 91.4,161.7 85.4,170.9 
			79.4,161.7 72.1,169.8 67.5,159.8 59,166.7 56.1,156.1 46.6,161.5 45.4,150.7 35.2,154.5 35.7,143.6 25,145.8 27.2,135.1 
			16.3,135.6 20.2,125.4 9.3,124.2 14.7,114.7 4.2,111.8 11,103.3 1.1,98.8 9.2,91.4 0,85.4 9.2,79.4 1.1,72.1 11,67.6 4.2,59 
			14.7,56.1 9.3,46.6 20.2,45.4 16.3,35.2 27.3,35.7 25,25 35.7,27.2 35.2,16.3 45.5,20.2 46.6,9.3 56.2,14.7 59,4.2 67.6,11 
			72.1,1.1 79.4,9.1 85.4,0 91.4,9.2 		"/>
		<path class="st5" d="M8.9,85.4c0-42.3,34.3-76.5,76.5-76.5c42.3,0,76.5,34.3,76.5,76.5c0,42.3-34.3,76.5-76.5,76.5
			C43.2,162,8.9,127.7,8.9,85.4L8.9,85.4z"/>
		<path class="st7" d="M10.9,85.4c0-41.1,33.4-74.5,74.5-74.5c41.1,0,74.5,33.4,74.5,74.5c0,41.1-33.4,74.5-74.5,74.5
			C44.3,159.9,10.9,126.6,10.9,85.4L10.9,85.4z"/>
		<path class="st5" d="M34.5,85.4c0-28.1,22.8-50.9,50.9-50.9c28.1,0,50.9,22.8,50.9,50.9c0,28.1-22.8,50.9-50.9,50.9
			C57.3,136.3,34.5,113.5,34.5,85.4L34.5,85.4z"/>
		<polygon class="st7" points="123.6,61.7 122,57.2 120.5,61.7 115.6,61.7 119.6,64.5 118.1,69 122,66.2 125.9,69 124.5,64.5 
			128.4,61.7 123.6,61.7 		"/>
		<polygon class="st7" points="107.9,46.9 106.3,42.4 104.8,46.9 100,46.9 103.9,49.7 102.4,54.2 106.3,51.4 110.3,54.2 108.8,49.7 
			112.7,46.9 107.9,46.9 		"/>
		<path class="st5" d="M53.8,91c-3.1-17.4,8.6-34.1,26-37.2c17.4-3.1,34.1,8.6,37.2,26c3.1,17.4-8.6,34.1-26,37.2
			C73.5,120.1,56.9,108.4,53.8,91L53.8,91z"/>
		<polygon class="st7" points="86.7,41.1 85.1,36.6 83.6,41.1 78.8,41.1 82.7,43.9 81.2,48.4 85.1,45.6 89.1,48.4 87.6,43.9 
			91.5,41.1 86.7,41.1 		"/>
		<polygon class="st7" points="65.7,46.9 64.2,42.4 62.7,46.9 57.8,46.9 61.8,49.7 60.2,54.2 64.2,51.4 68.1,54.2 66.7,49.7 
			70.6,46.9 65.7,46.9 		"/>
		<polygon class="st7" points="50.1,61.7 48.5,57.2 47,61.7 42.1,61.7 46.1,64.5 44.6,69 48.5,66.2 52.5,69 51,64.5 54.9,61.7 
			50.1,61.7 		"/>
		<polygon class="st7" points="44.3,84.1 42.7,79.6 41.2,84.1 36.3,84.1 40.3,86.9 38.8,91.4 42.7,88.6 46.7,91.4 45.2,86.9 
			49.1,84.1 44.3,84.1 		"/>
		<polygon class="st7" points="51,104.5 49.4,100 47.9,104.5 43,104.5 47,107.3 45.4,111.8 49.4,109 53.3,111.8 51.9,107.3 
			55.8,104.5 51,104.5 		"/>
		<polygon class="st7" points="64.9,119.3 63.3,114.8 61.8,119.3 56.9,119.3 60.9,122.1 59.4,126.6 63.3,123.8 67.3,126.6 
			65.8,122.1 69.7,119.3 64.9,119.3 		"/>
		<polygon class="st7" points="86.7,126.9 85.1,122.4 83.6,126.9 78.8,126.9 82.7,129.7 81.2,134.2 85.1,131.4 89.1,134.2 
			87.6,129.7 91.5,126.9 86.7,126.9 		"/>
		<polygon class="st7" points="108.5,119.3 106.9,114.8 105.4,119.3 100.6,119.3 104.5,122.1 103,126.6 107,123.8 110.9,126.6 
			109.4,122.1 113.3,119.3 108.5,119.3 		"/>
		<polygon class="st7" points="122.4,104.5 120.9,100 119.4,104.5 114.5,104.5 118.5,107.3 116.9,111.8 120.9,109 124.8,111.8 
			123.4,107.3 127.3,104.5 122.4,104.5 		"/>
		<polygon class="st7" points="129.6,84 128,79.5 126.5,84 121.7,84 125.6,86.8 124.1,91.3 128.1,88.5 132,91.3 130.5,86.8 
			134.4,84 129.6,84 		"/>
		<path class="st11" d="M54,79c7.5,1,14.8,2.5,21.7,4.4c6.7-2.3,13.6-4.1,20.2-5.3c7-1.3,13.9-1.9,20.2-2c0.3,1.1,0.6,2.2,0.8,3.3
			c-0.3,0-0.6,0-0.7,0c-6.2,0-12.9,0.6-19.8,1.9c-5,0.9-10.1,2.1-15.2,3.7c1.6,0.5,3.2,1,4.7,1.6c4.3-1.2,8.6-2.1,12.7-2.7
			c6.7-1,13.1-1.2,18.7-0.7c0.1,1.1,0.1,2.2,0.1,3.3c-5.4-0.5-11.9-0.3-18.3,0.6c-2.5,0.4-5.1,0.8-7.7,1.4c1.6,0.6,3.2,1.3,4.7,2
			c1.6-0.3,3.2-0.4,4.8-0.6c6-0.5,11.6-0.1,16,1.2c-0.2,1.1-0.5,2.2-0.8,3.3c-3.8-1.1-8.9-1.6-14.3-1.2c4.4,2.2,8.4,4.6,11.9,7.1
			c-0.7,1.3-1.5,2.5-2.3,3.7c-6.8-4.9-15.6-9.4-25.6-13c-9.7-3.5-21-6.2-32.5-7.8C53.5,81.9,53.7,80.4,54,79L54,79z M53.8,91
			c-0.2-1.3-0.4-2.6-0.4-3.9c11.1,1.7,22.4,4.7,31.3,8.5c9,3.8,16.8,8.9,21.8,14.1c-1.1,1-2.3,1.8-3.5,2.7
			c-4.5-4.8-11.5-9.1-19.9-12.8c-8.4-3.6-18.4-6.4-29-8C53.9,91.4,53.9,91.2,53.8,91L53.8,91z M94,116.3c-1,0.3-2,0.5-3,0.7
			c-0.5,0.1-1,0.2-1.6,0.2c-2.1-3.5-6.2-6.9-11.7-9.9c-5.7-3-12.9-5.5-20.7-7.1c-0.8-1.5-1.5-3.1-2-4.8c0.8,0.1,1.9,0.3,2.1,0.4
			c8.6,1.7,16.4,4.4,22.7,7.7c6,3.2,10.6,7,13.2,11.1C93.1,114.8,93.6,115.6,94,116.3L94,116.3z M77.9,116.6
			c-7.4-1.8-14-6.2-18.5-12.3c1.7,0.6,3.9,1.4,4.1,1.4c2.8,1.1,5.3,2.3,7.4,3.7c2,1.3,3.7,2.8,5,4.3
			C76.1,113.9,77.2,115.3,77.9,116.6L77.9,116.6z"/>
		<g>
			<path class="st9" d="M44.4,136.5c-0.4-0.4-0.7-0.8-0.8-1.4c-0.1-0.6,0.1-1.1,0.4-1.5c0.4-0.4,0.8-0.7,1.4-0.8
				c0.6-0.1,1.1,0.1,1.5,0.4c0.4,0.4,0.7,0.8,0.8,1.4c0.1,0.6-0.1,1.1-0.4,1.5c-0.4,0.4-0.8,0.7-1.4,0.8
				C45.4,137,44.9,136.9,44.4,136.5z"/>
			<path class="st9" d="M42.3,124.3l0.2-0.2l2.8,2.9l-0.2,0.2l-0.2-0.2c-0.3-0.3-0.5-0.4-0.8-0.4c-0.2,0-0.5,0.2-0.9,0.6l-4.3,4.2
				c-0.3,0.3-0.5,0.6-0.6,0.7c-0.1,0.1-0.1,0.2,0,0.4c0.1,0.2,0.2,0.4,0.3,0.6l0.2,0.2l-0.2,0.2l-2.8-2.9l0.2-0.2l0.2,0.2
				c0.3,0.3,0.5,0.4,0.8,0.4c0.2,0,0.5-0.2,0.9-0.6l4.3-4.2c0.3-0.3,0.5-0.6,0.6-0.7c0.1-0.1,0.1-0.2,0-0.4
				c-0.1-0.2-0.2-0.4-0.3-0.6L42.3,124.3z"/>
			<path class="st9" d="M33.5,128.2l-1.4-2.1l2.4-8.6l-4.4,3.1c-0.5,0.3-0.7,0.6-0.8,0.8c-0.1,0.2,0,0.5,0.2,0.8l0.2,0.3l-0.2,0.1
				l-1.9-2.6l0.2-0.1l0.2,0.3c0.2,0.3,0.5,0.5,0.8,0.5c0.2,0,0.5-0.2,0.9-0.4l6.4-4.5l0.1,0.2l-2.6,9.3l4.7-3.3
				c0.5-0.3,0.7-0.6,0.8-0.8c0.1-0.3,0-0.5-0.2-0.8l-0.2-0.3l0.2-0.1l1.9,2.6l-0.2,0.1l-0.2-0.3c-0.2-0.3-0.5-0.5-0.8-0.5
				c-0.2,0-0.5,0.2-0.9,0.4l-5.3,3.7c-0.1,0.4-0.2,0.7-0.2,0.9c0,0.2,0,0.4,0.1,0.7c0,0.1,0.1,0.3,0.3,0.5L33.5,128.2z"/>
			<path class="st9" d="M34.8,113.8l-0.2,0.1l-0.1-0.3c-0.2-0.4-0.4-0.6-0.7-0.6c-0.2,0-0.5,0.1-1,0.3l-5.5,2.5
				c-0.5,0.2-0.8,0.4-0.9,0.6c-0.1,0.2-0.1,0.5,0.1,0.8l0.1,0.3l-0.2,0.1l-1.6-3.4c-0.6-1.3-0.9-2.3-0.9-3.1c0-0.8,0.2-1.5,0.7-2.2
				c0.5-0.7,1.2-1.3,2-1.7c1.2-0.5,2.3-0.6,3.4-0.3c1.2,0.4,2.2,1.4,3,3.1L34.8,113.8z M33.1,111.7c-0.1-0.6-0.3-1-0.4-1.4
				c-0.4-1-1.1-1.6-2.1-1.9c-1-0.3-2-0.2-3.2,0.3c-1.2,0.5-1.9,1.3-2.3,2.2c-0.4,0.9-0.3,1.9,0.1,2.9c0.2,0.4,0.4,0.8,0.8,1.2
				L33.1,111.7z"/>
			<path class="st9" d="M29.3,100.2l0.2-0.1l1.1,3.8l-0.2,0.1l-0.1-0.3c-0.1-0.4-0.3-0.6-0.6-0.7c-0.2-0.1-0.5,0-1.1,0.1l-5.7,1.7
				c-0.5,0.1-0.7,0.2-0.9,0.3c-0.1,0.1-0.2,0.2-0.2,0.4c0,0.2,0,0.4,0,0.6l0.1,0.3l-0.2,0.1l-1.1-3.8l0.2-0.1L21,103
				c0.1,0.4,0.3,0.6,0.6,0.7c0.2,0.1,0.5,0,1.1-0.1l5.7-1.7c0.5-0.1,0.7-0.3,0.9-0.4c0.1-0.1,0.2-0.2,0.2-0.4c0-0.2,0-0.4,0-0.6
				L29.3,100.2z"/>
			<path class="st9" d="M18.5,92.5l3.1-0.7l0,0.2c-0.9,0.4-1.5,0.9-1.8,1.5c-0.3,0.6-0.4,1.2-0.3,2c0.1,0.6,0.3,1.1,0.7,1.6
				c0.4,0.4,0.9,0.7,1.7,0.9c0.7,0.2,1.6,0.2,2.6,0c0.8-0.1,1.5-0.4,2.1-0.7c0.6-0.4,1-0.8,1.2-1.4c0.2-0.6,0.3-1.2,0.2-1.9
				c-0.1-0.6-0.3-1.1-0.6-1.5c-0.3-0.4-0.9-0.8-1.8-1.3l0.1-0.2c0.9,0.3,1.6,0.8,2,1.3c0.5,0.6,0.8,1.2,0.9,2.1
				c0.2,1.5-0.1,2.8-1.1,3.8c-0.7,0.8-1.7,1.2-2.8,1.4c-0.9,0.1-1.8,0.1-2.6-0.2c-0.8-0.3-1.5-0.8-2-1.4c-0.5-0.7-0.9-1.4-1-2.3
				c-0.1-0.7,0-1.3,0.2-2c0.1-0.2,0.1-0.3,0.1-0.4c0-0.1-0.1-0.2-0.2-0.3c-0.1-0.1-0.3-0.2-0.5-0.2L18.5,92.5z"/>
			<path class="st9" d="M24.6,83.1l-0.1,3.6l1.5,0.7c0.4,0.2,0.6,0.2,0.8,0.2c0.1,0,0.3-0.1,0.4-0.2c0.1-0.1,0.2-0.4,0.2-0.9l0.3,0
				l-0.1,2.9l-0.3,0c-0.1-0.4-0.1-0.6-0.3-0.8c-0.2-0.2-0.7-0.5-1.3-0.8l-7.6-3.4l0-0.2l7.8-3.1c0.6-0.2,1-0.5,1.2-0.7
				c0.2-0.2,0.3-0.5,0.3-0.9l0.3,0l-0.1,3.7l-0.3,0c0-0.4-0.1-0.6-0.2-0.8c-0.1-0.1-0.2-0.2-0.4-0.2c-0.2,0-0.5,0.1-1,0.3L24.6,83.1
				z M24.1,83.3l-3.8,1.5l3.7,1.7L24.1,83.3z"/>
			<path class="st9" d="M20.2,68.8l3.1,0.4l0,0.2c-1,0.1-1.7,0.4-2.2,0.8c-0.5,0.4-0.8,1-1,1.7c-0.1,0.6-0.1,1.2,0.1,1.7
				c0.2,0.5,0.6,1,1.2,1.4c0.6,0.4,1.4,0.7,2.4,0.9c0.8,0.2,1.6,0.2,2.2,0c0.7-0.1,1.2-0.5,1.6-0.9c0.4-0.5,0.7-1,0.8-1.7
				c0.1-0.6,0.1-1.1-0.1-1.6c-0.2-0.5-0.6-1.1-1.2-1.8l0.2-0.2c0.7,0.6,1.2,1.3,1.5,1.9c0.3,0.7,0.3,1.4,0.1,2.3
				c-0.3,1.5-1.1,2.6-2.4,3.2c-1,0.5-2,0.6-3.1,0.3c-0.9-0.2-1.7-0.5-2.4-1.1c-0.7-0.6-1.2-1.2-1.4-2c-0.3-0.8-0.3-1.6-0.2-2.5
				c0.1-0.7,0.4-1.3,0.9-1.9c0.1-0.2,0.2-0.3,0.2-0.4c0-0.1,0-0.2-0.1-0.3c-0.1-0.1-0.2-0.3-0.5-0.3L20.2,68.8z"/>
			<path class="st9" d="M31.1,65.1l0.2,0.1L30.1,69l-0.2-0.1l0.1-0.3c0.1-0.4,0.1-0.7-0.1-0.9c-0.1-0.2-0.4-0.3-0.9-0.5l-5.7-1.9
				c-0.4-0.1-0.7-0.2-0.9-0.2c-0.1,0-0.2,0.1-0.4,0.2c-0.2,0.2-0.3,0.3-0.4,0.5l-0.1,0.3L21.3,66l1.3-3.8l0.2,0.1l-0.1,0.3
				c-0.1,0.4-0.1,0.7,0.1,0.9c0.1,0.2,0.4,0.3,0.9,0.5l5.7,1.9c0.4,0.1,0.7,0.2,0.9,0.2c0.1,0,0.2-0.1,0.4-0.2
				c0.2-0.2,0.3-0.3,0.4-0.5L31.1,65.1z"/>
			<path class="st9" d="M23.4,53l1.2,2.9l-0.1,0.2l-1.8-1.7L23.4,53z M25.3,55.5c0.5-1.1,1.4-1.8,2.6-2.2c1.2-0.4,2.4-0.3,3.7,0.3
				c1.3,0.6,2.1,1.5,2.5,2.8c0.4,1.2,0.4,2.4-0.2,3.5c-0.6,1.1-1.5,1.9-2.7,2.3c-1.2,0.4-2.4,0.2-3.7-0.4c-1.3-0.7-2.2-1.6-2.6-3
				C24.6,57.7,24.7,56.6,25.3,55.5z M25.7,55.9c-0.4,0.7-0.4,1.5-0.1,2.2c0.4,0.9,1.3,1.7,2.6,2.3c1.4,0.7,2.5,0.9,3.6,0.7
				c0.8-0.2,1.3-0.6,1.7-1.3c0.4-0.8,0.4-1.6,0-2.4c-0.4-0.8-1.2-1.5-2.5-2.2c-1.4-0.7-2.6-1-3.6-0.7C26.6,54.6,26,55.1,25.7,55.9z"
				/>
			<path class="st9" d="M28.7,49.4l1.5-2l9-0.3L35,43.8c-0.5-0.3-0.8-0.5-1-0.5c-0.3,0-0.5,0.2-0.7,0.5l-0.2,0.3l-0.2-0.2l1.9-2.6
				l0.2,0.2l-0.2,0.3c-0.2,0.3-0.3,0.6-0.2,0.9c0.1,0.2,0.3,0.4,0.7,0.7l6.2,4.7l-0.1,0.2l-9.6,0.4l4.6,3.4c0.5,0.3,0.8,0.5,1,0.5
				c0.3,0,0.5-0.2,0.7-0.5l0.2-0.3l0.2,0.2l-1.9,2.6l-0.2-0.2l0.2-0.3c0.2-0.3,0.3-0.6,0.2-0.9c-0.1-0.2-0.3-0.4-0.7-0.7l-5.1-3.9
				c-0.4,0-0.7,0.1-0.9,0.1c-0.2,0.1-0.4,0.2-0.6,0.3c-0.1,0.1-0.2,0.2-0.4,0.4L28.7,49.4z"/>
			<path class="st9" d="M46.3,30.7l2,2.1L48.1,33c-0.6-0.4-1.2-0.7-1.8-0.7c-0.8-0.1-1.5,0.2-2.2,0.7c-0.9,0.7-1.3,1.7-1.2,2.8
				c0.1,0.9,0.5,1.8,1.2,2.7c0.6,0.7,1.2,1.2,1.9,1.6c0.7,0.4,1.4,0.5,2,0.4c0.6-0.1,1.2-0.3,1.7-0.7c0.3-0.2,0.5-0.5,0.7-0.7
				c0.2-0.3,0.4-0.6,0.5-0.9l-1.7-2.1c-0.3-0.4-0.5-0.6-0.7-0.6c-0.1-0.1-0.3-0.1-0.5-0.1c-0.2,0-0.4,0.2-0.7,0.4l-0.2-0.2l2.8-2.2
				l0.2,0.2l-0.1,0.1c-0.3,0.2-0.4,0.5-0.4,0.7c0,0.2,0.2,0.5,0.5,0.9l1.8,2.2c-0.2,0.5-0.5,1-0.8,1.5c-0.3,0.4-0.7,0.8-1.2,1.2
				c-1.4,1.1-2.8,1.5-4.3,1.2c-1.1-0.2-2-0.8-2.7-1.7c-0.5-0.6-0.8-1.4-1-2.2c-0.2-1-0.1-1.9,0.2-2.8c0.3-0.7,0.8-1.4,1.5-2
				c0.3-0.2,0.5-0.4,0.8-0.5c0.2-0.1,0.6-0.3,1.1-0.4c0.3-0.1,0.4-0.2,0.5-0.2c0.1-0.1,0.1-0.1,0.1-0.2c0-0.1-0.1-0.2-0.2-0.4
				L46.3,30.7z"/>
			<path class="st9" d="M52.2,27.9l1.8,3.2l1.8-1c0.5-0.3,0.7-0.5,0.8-0.7c0.1-0.3,0-0.7-0.2-1.2l0.2-0.1l1.6,2.8L58,31.1
				c-0.3-0.4-0.5-0.6-0.6-0.7c-0.1-0.1-0.3-0.1-0.5-0.1c-0.2,0-0.5,0.1-0.8,0.3l-1.8,1l1.5,2.7c0.2,0.4,0.3,0.6,0.4,0.6
				c0.1,0.1,0.2,0.1,0.3,0.1c0.1,0,0.3-0.1,0.5-0.2l1.4-0.8c0.5-0.3,0.8-0.5,0.9-0.6c0.2-0.2,0.3-0.4,0.4-0.7
				c0.1-0.4,0.2-0.9,0.1-1.5L60,31l0.4,2.4l-6.3,3.4L54,36.6l0.3-0.2c0.2-0.1,0.3-0.3,0.5-0.4c0.1-0.1,0.1-0.3,0.1-0.4
				c0-0.2-0.1-0.4-0.4-0.8l-2.9-5.3c-0.3-0.5-0.5-0.8-0.7-0.9c-0.2-0.1-0.5,0-0.9,0.2l-0.3,0.2l-0.1-0.2l6.3-3.4L57,27l-0.2,0.1
				c-0.3-0.4-0.6-0.6-0.8-0.7c-0.2-0.1-0.4-0.1-0.7-0.1c-0.2,0-0.5,0.2-0.9,0.4L52.2,27.9z"/>
			<path class="st9" d="M63.6,21.9c1.1-0.4,2.3-0.3,3.4,0.3c1.1,0.6,1.9,1.5,2.4,2.8c0.5,1.3,0.4,2.6-0.1,3.7
				c-0.5,1.2-1.4,2-2.6,2.4c-1.2,0.4-2.4,0.3-3.5-0.2c-1.1-0.6-1.9-1.5-2.4-2.9c-0.5-1.4-0.4-2.7,0.2-3.9
				C61.6,23.1,62.4,22.3,63.6,21.9z M63.6,22.4c-0.8,0.3-1.3,0.8-1.6,1.5c-0.3,0.9-0.3,2.1,0.2,3.5c0.5,1.4,1.2,2.4,2.1,3
				c0.7,0.4,1.4,0.5,2.2,0.2c0.8-0.3,1.4-0.8,1.7-1.7c0.3-0.8,0.2-1.9-0.2-3.3c-0.5-1.5-1.2-2.5-2-3C65.2,22.2,64.5,22.2,63.6,22.4z
				"/>
			<path class="st9" d="M79,18.5l0.7,2.9l-0.2,0c-0.3-0.7-0.7-1.2-1.2-1.5c-0.6-0.4-1.4-0.6-2.2-0.5c-1.2,0.2-2,0.8-2.5,1.8
				c-0.4,0.9-0.5,1.8-0.4,2.9c0.1,0.9,0.4,1.6,0.9,2.3c0.4,0.7,1,1.1,1.6,1.4c0.6,0.3,1.2,0.3,1.8,0.3c0.3-0.1,0.7-0.1,1-0.3
				c0.3-0.1,0.6-0.3,0.9-0.5l-0.4-2.7c-0.1-0.5-0.1-0.8-0.2-0.9c-0.1-0.1-0.2-0.2-0.4-0.3c-0.2-0.1-0.4-0.1-0.8,0l0-0.3l3.6-0.5
				l0,0.3l-0.2,0c-0.4,0.1-0.6,0.2-0.7,0.5c-0.1,0.2-0.1,0.5,0,1l0.4,2.8c-0.5,0.4-1,0.6-1.4,0.8c-0.5,0.2-1,0.4-1.7,0.4
				c-1.8,0.3-3.2-0.1-4.3-1.1c-0.8-0.7-1.3-1.7-1.5-2.8c-0.1-0.8,0-1.6,0.2-2.4c0.3-0.9,0.9-1.7,1.6-2.3c0.6-0.5,1.4-0.8,2.3-0.9
				c0.3,0,0.6-0.1,0.9-0.1c0.3,0,0.7,0.1,1.2,0.2c0.3,0.1,0.4,0.1,0.5,0.1c0.1,0,0.2-0.1,0.2-0.2c0-0.1,0.1-0.2,0-0.5L79,18.5z"/>
			<path class="st9" d="M91.9,27.9l-2.5-0.1l-3-4.4c-0.2,0-0.4,0-0.6,0c-0.1,0-0.1,0-0.2,0c-0.1,0-0.1,0-0.2,0l-0.1,2.7
				c0,0.6,0,0.9,0.2,1.1c0.2,0.2,0.4,0.3,0.8,0.3l0.4,0l0,0.3l-4-0.1l0-0.3l0.3,0c0.4,0,0.7-0.1,0.9-0.4c0.1-0.1,0.2-0.5,0.2-1
				l0.2-6c0-0.6,0-0.9-0.2-1.1c-0.2-0.2-0.4-0.3-0.8-0.3l-0.3,0l0-0.3l3.4,0.1c1,0,1.7,0.1,2.2,0.3c0.5,0.2,0.9,0.4,1.2,0.8
				c0.3,0.4,0.5,0.9,0.5,1.4c0,0.6-0.2,1.1-0.6,1.5c-0.4,0.4-1,0.7-1.8,0.8l1.8,2.7c0.4,0.6,0.8,1,1.1,1.2c0.3,0.2,0.7,0.3,1.2,0.4
				L91.9,27.9z M85.5,23c0.1,0,0.2,0,0.2,0c0.1,0,0.1,0,0.2,0c0.9,0,1.6-0.1,2-0.5c0.5-0.4,0.7-0.9,0.7-1.4c0-0.6-0.2-1.1-0.5-1.4
				c-0.4-0.4-0.8-0.6-1.4-0.6c-0.3,0-0.6,0-1.1,0.1L85.5,23z"/>
			<path class="st9" d="M99.2,26.2l-3.5-0.7l-0.9,1.3c-0.2,0.3-0.4,0.6-0.4,0.7c0,0.1,0,0.3,0.1,0.4c0.1,0.1,0.4,0.3,0.8,0.4
				l-0.1,0.2L92.4,28l0.1-0.2c0.4,0,0.7,0,0.8-0.1c0.3-0.2,0.6-0.5,1-1.1l4.7-6.8l0.2,0l1.6,8.2c0.1,0.7,0.3,1.1,0.4,1.3
				c0.2,0.2,0.4,0.4,0.8,0.5L102,30l-3.6-0.7l0.1-0.2c0.4,0.1,0.6,0,0.8,0c0.1-0.1,0.2-0.2,0.3-0.3c0-0.2,0-0.5-0.1-1L99.2,26.2z
				 M99.1,25.7l-0.8-4L96,25L99.1,25.7z M101.2,17.3l-2.5,1.9l-0.2,0l1.2-2.2L101.2,17.3z"/>
			<path class="st9" d="M108.5,23.1l-1.3,3.4l1.6,0.6c0.4,0.1,0.7,0.2,0.9,0.1c0.2-0.1,0.5-0.4,0.7-0.8l0.2,0.1l-1.1,2.9l-0.2-0.1
				c0.1-0.3,0.2-0.6,0.2-0.8c0-0.2-0.1-0.4-0.2-0.5c-0.1-0.1-0.3-0.3-0.6-0.4L107,27l-1.1,2.7c-0.2,0.4-0.3,0.7-0.3,0.9
				c0,0.1,0.1,0.2,0.2,0.4c0.1,0.2,0.3,0.3,0.5,0.4l0.3,0.1l-0.1,0.2l-3.7-1.4l0.1-0.2l0.3,0.1c0.4,0.1,0.7,0.1,0.9,0
				c0.2-0.1,0.3-0.4,0.5-0.9l2.2-5.6c0.2-0.4,0.3-0.7,0.3-0.9c0-0.1-0.1-0.2-0.2-0.4c-0.1-0.2-0.3-0.3-0.5-0.4l-0.3-0.1l0.1-0.2
				l6.4,2.5l-0.7,1.9l-0.2-0.1c0-0.4,0-0.8,0-1c-0.1-0.2-0.2-0.5-0.4-0.6c-0.2-0.2-0.5-0.3-0.9-0.5L108.5,23.1z"/>
			<path class="st9" d="M114.3,35.2l-0.1,0.2l-3.5-1.9l0.1-0.2l0.3,0.2c0.3,0.2,0.6,0.2,0.9,0.1c0.2-0.1,0.4-0.4,0.6-0.9l2.8-5.3
				c0.2-0.4,0.3-0.7,0.4-0.9c0-0.1,0-0.3-0.1-0.4c-0.1-0.2-0.3-0.3-0.5-0.4l-0.3-0.2l0.1-0.2l3.5,1.9l-0.1,0.2l-0.3-0.2
				c-0.3-0.2-0.6-0.2-0.9-0.1c-0.2,0.1-0.4,0.4-0.6,0.9l-2.8,5.3c-0.2,0.4-0.3,0.7-0.4,0.9c0,0.1,0,0.3,0.1,0.4
				c0.1,0.2,0.3,0.3,0.5,0.4L114.3,35.2z"/>
			<path class="st9" d="M127.4,32.8l-1.6,2.7l-0.2-0.1c0.3-0.9,0.4-1.7,0.2-2.4c-0.2-0.6-0.6-1.2-1.2-1.6c-0.5-0.4-1-0.5-1.6-0.6
				c-0.6,0-1.2,0.1-1.8,0.5c-0.6,0.4-1.2,1-1.8,1.8c-0.5,0.7-0.8,1.4-0.9,2c-0.1,0.7-0.1,1.3,0.2,1.9c0.3,0.6,0.7,1.1,1.2,1.5
				c0.5,0.3,1,0.5,1.5,0.6c0.5,0.1,1.2-0.1,2.1-0.4l0.1,0.2c-0.9,0.4-1.6,0.6-2.4,0.5c-0.7,0-1.4-0.3-2.1-0.8
				c-1.3-0.9-1.9-2-1.9-3.5c0-1.1,0.3-2.1,1-3c0.5-0.8,1.2-1.3,2-1.7c0.8-0.4,1.6-0.6,2.4-0.5c0.8,0.1,1.6,0.4,2.3,0.9
				c0.5,0.4,1,0.9,1.3,1.5c0.1,0.2,0.2,0.3,0.2,0.4c0.1,0.1,0.2,0.1,0.3,0.1c0.2,0,0.3-0.1,0.5-0.3L127.4,32.8z"/>
			<path class="st9" d="M129.8,43.8l-2.5-2.6l-1.5,0.6c-0.4,0.1-0.6,0.3-0.7,0.4c-0.1,0.1-0.1,0.2-0.1,0.4c0,0.2,0.2,0.4,0.5,0.8
				l-0.2,0.2l-2-2.1l0.2-0.2c0.3,0.2,0.6,0.3,0.7,0.3c0.3,0,0.8-0.1,1.5-0.4l7.7-3l0.2,0.2l-3.2,7.7c-0.3,0.6-0.4,1.1-0.4,1.4
				c0,0.3,0.2,0.6,0.4,0.8l-0.2,0.2l-2.6-2.6l0.2-0.2c0.3,0.2,0.5,0.4,0.7,0.4c0.2,0,0.3,0,0.4-0.1c0.1-0.1,0.3-0.4,0.5-0.9
				L129.8,43.8z M130,43.3l1.6-3.7l-3.8,1.5L130,43.3z"/>
			<path class="st9" d="M137.6,51.7l-2.3,1.4c-0.5,0.3-0.8,0.6-0.8,0.7c-0.1,0.3,0,0.5,0.2,0.8l0.2,0.3l-0.2,0.1l-2.1-3.4l0.2-0.1
				l0.2,0.3c0.2,0.3,0.5,0.5,0.8,0.5c0.2,0,0.5-0.1,0.9-0.4l5.1-3.2c0.5-0.3,0.8-0.6,0.8-0.7c0.1-0.3,0-0.5-0.2-0.8l-0.2-0.3
				l0.2-0.1l1.8,2.9c0.4,0.7,0.7,1.3,0.8,1.8c0.1,0.5,0.1,1-0.1,1.5c-0.2,0.5-0.5,0.9-1,1.2c-0.6,0.4-1.3,0.5-2,0.3
				c-0.7-0.2-1.2-0.6-1.7-1.4c-0.1-0.2-0.2-0.4-0.3-0.6C137.8,52.3,137.7,52,137.6,51.7z M137.9,51.5c0.1,0.2,0.2,0.4,0.3,0.6
				c0.1,0.2,0.2,0.3,0.2,0.4c0.3,0.4,0.6,0.7,1.1,0.7c0.5,0.1,1,0,1.5-0.3c0.3-0.2,0.6-0.5,0.8-0.8c0.2-0.3,0.3-0.7,0.3-1
				c0-0.3-0.1-0.7-0.3-1c-0.1-0.2-0.3-0.4-0.6-0.7L137.9,51.5z"/>
			<path class="st9" d="M140.5,67.4l-1-2.3l2.8-4.6c-0.1-0.2-0.2-0.4-0.2-0.5c0-0.1,0-0.1-0.1-0.2c0-0.1,0-0.1-0.1-0.2l-2.5,1.1
				c-0.5,0.2-0.8,0.4-0.9,0.6c-0.1,0.2-0.1,0.5,0,0.8l0.1,0.3l-0.2,0.1l-1.6-3.7l0.2-0.1l0.1,0.3c0.2,0.4,0.4,0.6,0.7,0.6
				c0.2,0,0.5-0.1,1-0.3l5.5-2.3c0.5-0.2,0.8-0.4,0.9-0.6c0.1-0.2,0.1-0.5,0-0.8l-0.1-0.3l0.2-0.1l1.3,3.1c0.4,0.9,0.6,1.6,0.7,2.1
				c0,0.5,0,1-0.3,1.4c-0.2,0.5-0.6,0.8-1.1,1c-0.5,0.2-1.1,0.2-1.6,0.1c-0.5-0.2-1-0.6-1.5-1.2l-1.7,2.8c-0.4,0.6-0.6,1.1-0.7,1.5
				c-0.1,0.4,0,0.8,0.1,1.3L140.5,67.4z M142.3,59.4c0,0.1,0.1,0.1,0.1,0.2c0,0.1,0,0.1,0.1,0.1c0.3,0.8,0.8,1.4,1.3,1.6
				c0.5,0.3,1.1,0.3,1.6,0c0.5-0.2,0.9-0.6,1.1-1.1c0.2-0.5,0.2-1-0.1-1.5c-0.1-0.2-0.3-0.6-0.5-0.9L142.3,59.4z"/>
			<path class="st9" d="M151,70.6c0.3,1.2,0.1,2.3-0.6,3.4c-0.7,1.1-1.7,1.7-3,2c-1.4,0.3-2.6,0.1-3.7-0.5c-1.1-0.7-1.8-1.6-2.1-2.8
				c-0.3-1.2-0.1-2.4,0.6-3.4c0.7-1,1.7-1.7,3.1-2.1c1.4-0.3,2.7-0.1,3.8,0.7C150.1,68.5,150.8,69.4,151,70.6z M150.5,70.6
				c-0.2-0.8-0.6-1.4-1.3-1.7c-0.9-0.4-2-0.5-3.5-0.2c-1.5,0.3-2.5,0.9-3.2,1.7c-0.5,0.6-0.7,1.3-0.5,2.1c0.2,0.8,0.7,1.5,1.5,1.9
				c0.8,0.4,1.9,0.4,3.3,0.1c1.5-0.4,2.6-0.9,3.3-1.7C150.6,72.2,150.7,71.5,150.5,70.6z"/>
			<path class="st9" d="M152.6,85.7l-2.2,0.2l0-0.3c0.4-0.1,0.6-0.2,0.8-0.2c0.3-0.2,0.4-0.4,0.6-0.6c0.1-0.2,0.2-0.6,0.1-0.9
				l-0.1-1.3l-7.1,0.4c-0.6,0-0.9,0.1-1.1,0.2c-0.2,0.2-0.3,0.5-0.2,0.8l0,0.3l-0.3,0l-0.2-3.9l0.3,0l0,0.3c0,0.4,0.2,0.7,0.4,0.8
				c0.2,0.1,0.5,0.1,1,0.1l7.1-0.4l-0.1-1.1c0-0.4-0.1-0.7-0.1-0.9c-0.1-0.2-0.3-0.4-0.5-0.6c-0.3-0.2-0.6-0.2-1-0.2l0-0.3l2.2,0
				L152.6,85.7z"/>
			<path class="st9" d="M151.8,91l-3.6-0.4l-0.2,2c-0.1,0.5,0,0.9,0.1,1.1c0.2,0.3,0.5,0.4,1.1,0.5l0,0.3l-3.2-0.3l0-0.3
				c0.5,0,0.8-0.1,0.9-0.1c0.2-0.1,0.3-0.2,0.4-0.4c0.1-0.2,0.2-0.5,0.2-0.8l0.2-2l-3-0.3c-0.4,0-0.7,0-0.8,0
				c-0.1,0-0.2,0.1-0.2,0.2c-0.1,0.1-0.1,0.3-0.1,0.5l-0.2,1.6c-0.1,0.5-0.1,0.9,0,1.1c0,0.2,0.2,0.5,0.4,0.7c0.3,0.3,0.6,0.6,1.2,1
				l0,0.3l-2.2-1l0.7-7.1l0.3,0l0,0.3c0,0.2,0,0.4,0.1,0.6c0.1,0.2,0.2,0.3,0.3,0.3c0.1,0.1,0.4,0.1,0.9,0.2l6,0.6
				c0.6,0.1,1,0,1.1-0.1c0.2-0.1,0.3-0.4,0.4-0.8l0-0.3l0.3,0l-0.7,7.1l-2-0.1l0-0.3c0.5,0,0.8-0.1,1-0.2c0.2-0.1,0.3-0.3,0.5-0.5
				c0.1-0.2,0.2-0.5,0.2-0.9L151.8,91z"/>
			<path class="st9" d="M149.3,107l-2.9-0.6l0.1-0.2c0.8,0,1.4-0.2,1.8-0.5c0.7-0.4,1.1-1,1.3-1.8c0.3-1.1,0.1-2.1-0.6-3
				c-0.6-0.7-1.5-1.2-2.5-1.5c-0.9-0.2-1.7-0.3-2.5-0.2c-0.8,0.1-1.4,0.4-1.9,0.9c-0.5,0.4-0.8,0.9-0.9,1.5c-0.1,0.3-0.1,0.7-0.1,1
				c0,0.3,0,0.7,0.1,1l2.6,0.7c0.4,0.1,0.8,0.2,0.9,0.1c0.2,0,0.3-0.1,0.4-0.2c0.1-0.1,0.2-0.4,0.3-0.7l0.3,0.1l-1,3.5l-0.2-0.1
				l0-0.2c0.1-0.3,0-0.6-0.1-0.8c-0.1-0.1-0.4-0.3-0.9-0.4l-2.7-0.8c-0.1-0.6-0.2-1.1-0.2-1.7c0-0.5,0.1-1.1,0.3-1.7
				c0.5-1.7,1.4-2.9,2.8-3.5c1-0.4,2.1-0.5,3.2-0.2c0.8,0.2,1.5,0.6,2.1,1.2c0.7,0.7,1.2,1.5,1.5,2.4c0.2,0.8,0.2,1.6-0.1,2.5
				c-0.1,0.3-0.2,0.6-0.3,0.9c-0.1,0.3-0.3,0.6-0.7,1c-0.2,0.2-0.3,0.4-0.3,0.5c0,0.1,0,0.2,0.1,0.2c0.1,0.1,0.2,0.2,0.4,0.2
				L149.3,107z"/>
			<path class="st9" d="M137.9,110.5l-0.2-0.1l1.6-3.6l0.2,0.1l-0.1,0.3c-0.2,0.4-0.2,0.7,0,0.9c0.1,0.2,0.4,0.3,0.9,0.6l5.5,2.4
				c0.4,0.2,0.7,0.3,0.9,0.3c0.1,0,0.2,0,0.4-0.1c0.2-0.1,0.3-0.3,0.4-0.5l0.1-0.3l0.2,0.1l-1.6,3.6l-0.2-0.1l0.1-0.3
				c0.2-0.3,0.2-0.6,0-0.9c-0.1-0.2-0.4-0.4-0.9-0.6l-5.5-2.4c-0.4-0.2-0.7-0.3-0.9-0.3c-0.1,0-0.3,0-0.4,0.1
				c-0.2,0.1-0.3,0.3-0.4,0.5L137.9,110.5z"/>
			<path class="st9" d="M137.3,111.4l0.2,0.1l-0.2,0.3c-0.2,0.3-0.2,0.6-0.1,0.9c0.1,0.2,0.3,0.4,0.8,0.7l5.1,3.1
				c0.5,0.3,0.8,0.4,1,0.4c0.3,0,0.5-0.2,0.7-0.5l0.2-0.3l0.2,0.1l-2,3.2c-0.7,1.2-1.4,2-2,2.5c-0.6,0.5-1.4,0.7-2.2,0.7
				c-0.9,0-1.7-0.3-2.5-0.8c-1.1-0.7-1.8-1.6-2.2-2.7c-0.4-1.3-0.1-2.6,0.9-4.2L137.3,111.4z M136.5,114c-0.4,0.4-0.7,0.8-0.9,1.1
				c-0.5,0.9-0.7,1.8-0.4,2.8c0.3,1,1,1.8,2,2.5c1.1,0.7,2.1,0.9,3.1,0.7c1-0.2,1.8-0.8,2.3-1.7c0.2-0.4,0.4-0.8,0.6-1.3L136.5,114z
				"/>
			<path class="st9" d="M129.9,127.1l2.4-2.7l-0.7-1.4c-0.2-0.4-0.3-0.6-0.4-0.7c-0.1-0.1-0.2-0.1-0.4-0.1c-0.2,0-0.4,0.2-0.7,0.5
				l-0.2-0.2l1.9-2.2l0.2,0.2c-0.2,0.3-0.3,0.6-0.3,0.7c0,0.3,0.2,0.8,0.5,1.5l3.5,7.5l-0.2,0.2l-7.9-2.7c-0.6-0.2-1.1-0.3-1.4-0.3
				c-0.3,0-0.6,0.2-0.8,0.5l-0.2-0.2l2.4-2.7l0.2,0.2c-0.2,0.3-0.4,0.5-0.4,0.7s0,0.3,0.2,0.4c0.1,0.1,0.4,0.3,0.9,0.4L129.9,127.1z
				 M130.4,127.3l3.8,1.3l-1.7-3.7L130.4,127.3z"/>
			<path class="st9" d="M126.2,136.7c-0.5,0.4-1,0.5-1.5,0.4c-0.6-0.1-1-0.3-1.4-0.8c-0.4-0.4-0.5-1-0.4-1.5c0.1-0.6,0.3-1,0.8-1.4
				c0.5-0.4,1-0.5,1.5-0.4c0.6,0.1,1,0.3,1.4,0.8c0.4,0.4,0.5,1,0.4,1.5C126.9,135.9,126.7,136.4,126.2,136.7z"/>
		</g>
	</g>
</g>
</svg>
